<svg width="19" height="20" viewBox="0 0 19 20" fill="none" xmlns="http://www.w3.org/2000/svg">
<path fill-rule="evenodd" clip-rule="evenodd" d="M9.5017 0.000366211C12.0415 0.000366211 14.4283 0.987803 16.221 2.78146C19.9268 6.48722 19.9268 12.5162 16.221 16.2219C14.4044 18.0394 11.9584 19.0012 9.48049 19.0012C8.12972 19.0012 6.77012 18.7157 5.49803 18.1269C5.12321 17.9767 4.77226 17.8352 4.52032 17.8352C4.23036 17.837 3.84052 17.9714 3.46393 18.1013C2.69131 18.3665 1.72951 18.6971 1.01788 17.9882C0.308905 17.2783 0.635988 16.3192 0.899423 15.5474C1.02937 15.1673 1.16286 14.7748 1.16286 14.4778C1.16286 14.2338 1.04528 13.9226 0.864946 13.4744C-0.790801 9.8986 -0.0252497 5.58906 2.78324 2.78234C4.57601 0.988687 6.96195 0.000366211 9.5017 0.000366211ZM9.50259 1.32638C7.31644 1.32638 5.26289 2.17679 3.72029 3.72027C1.30341 6.13538 0.645712 9.84379 2.08223 12.9493C2.28908 13.4612 2.48887 13.9597 2.48887 14.4778C2.48887 14.9949 2.31118 15.5156 2.15471 15.9753C2.02565 16.3536 1.83028 16.9247 1.95581 17.0502C2.07869 17.1775 2.65329 16.9769 3.03253 16.8469C3.4878 16.6913 4.00406 16.5128 4.5159 16.5092C5.02862 16.5092 5.51218 16.7037 6.02402 16.9097C9.15959 18.3594 12.868 17.7 15.284 15.2849C18.4717 12.0954 18.4717 6.90712 15.284 3.71939C13.7405 2.17591 11.6879 1.32638 9.50259 1.32638ZM12.9917 8.98427C13.4797 8.98427 13.8757 9.37942 13.8757 9.86828C13.8757 10.3571 13.4797 10.7523 12.9917 10.7523C12.5037 10.7523 12.1041 10.3571 12.1041 9.86828C12.1041 9.37942 12.4958 8.98427 12.9837 8.98427H12.9917ZM9.44787 8.98427C9.93584 8.98427 10.3319 9.37942 10.3319 9.86828C10.3319 10.3571 9.93584 10.7523 9.44787 10.7523C8.9599 10.7523 8.56032 10.3571 8.56032 9.86828C8.56032 9.37942 8.95106 8.98427 9.43991 8.98427H9.44787ZM5.9037 8.98427C6.39168 8.98427 6.78771 9.37942 6.78771 9.86828C6.78771 10.3571 6.39168 10.7523 5.9037 10.7523C5.41573 10.7523 5.01616 10.3571 5.01616 9.86828C5.01616 9.37942 5.40777 8.98427 5.89575 8.98427H5.9037Z" fill="#9ED8DB"/>
</svg>
