<svg width="18" height="19" viewBox="0 0 18 19" fill="none" xmlns="http://www.w3.org/2000/svg">
<path d="M6.28558 17.8379V14.9411C6.28558 14.2016 6.88943 13.6022 7.63431 13.6022H10.3572C10.7149 13.6022 11.058 13.7432 11.3109 13.9943C11.5638 14.2454 11.7059 14.586 11.7059 14.9411V17.8379C11.7037 18.1453 11.8251 18.4409 12.0433 18.6591C12.2615 18.8773 12.5584 19 12.868 19H14.7257C15.5933 19.0022 16.4262 18.6616 17.0405 18.0534C17.6548 17.4451 18 16.6192 18 15.7579V7.50543C18 6.80968 17.6893 6.14973 17.1517 5.70335L10.8322 0.692909C9.73294 -0.185592 8.1579 -0.157228 7.09142 0.760277L0.916117 5.70335C0.353123 6.13657 0.0166285 6.79848 0 7.50543V15.7495C0 17.5447 1.46594 19 3.27427 19H5.08954C5.73274 19 6.25547 18.4848 6.26013 17.8463L6.28558 17.8379Z" fill="#1D3354"/>
</svg>
