<svg width="304" height="167" viewBox="0 0 304 167" fill="none" xmlns="http://www.w3.org/2000/svg">
<path d="M303.347 167H0C3.32403 158.524 9.46218 151.333 18.1154 149.2C30.7734 146.083 44.169 154.652 56.799 151.43C63.9762 149.602 69.6235 144.272 75.5597 139.848C97.954 123.151 128.643 118.216 155.142 127.053C168.994 131.671 181.616 139.745 195.805 143.179C214.154 147.62 233.342 143.937 252.21 143.33C270.587 142.739 296.917 150.226 303.347 167Z" fill="#F3F5FD"/>
<path d="M295.619 167H252.556C249.397 164.479 249.18 158.798 252.453 156.263C254.977 154.308 258.792 154.831 261.164 156.864C260.721 155.351 260.712 153.743 261.139 152.224C261.91 149.49 263.624 146.712 266.242 145.606C272.923 142.787 277.669 148.693 278.621 151.995C280.329 149.48 284.157 148.151 286.558 149.844C289.6 151.989 289.463 155.369 287.037 157.796C290.27 157.193 292.705 157.659 294.948 160.065C296.654 161.898 296.917 165.02 295.619 167Z" fill="#8DDBE0"/>
<path d="M237.609 26.5684C237.609 26.5684 234.966 25.1671 235.556 17.9705L230.096 16.9582C230.096 16.9582 230.709 23.4101 227.947 25.4587L237.609 26.5684Z" fill="#E98862"/>
<g opacity="0.15">
<path d="M229.066 24.1097L233.602 20.6397L230.04 20.6028C229.936 21.8222 229.606 23.0115 229.066 24.1097Z" fill="black"/>
</g>
<path d="M238.656 15.18C238.278 17.3635 237.086 19.4309 235.16 20.1356C232.874 20.9729 231.181 21.0293 228.545 21.0293C224.947 21.0293 225.066 17.2781 224.965 13.4975C224.863 9.70179 225.166 5.63066 226.587 4.30802C229.424 1.66786 237.754 3.33979 238.767 7.75543C239.29 10.0398 239.014 13.102 238.656 15.18Z" fill="#E98862"/>
<path d="M222.47 2.73657C222.47 0.931016 224.717 -2.02664 230.711 2.05304L230.717 2.05714C232.274 2.01353 233.83 2.18373 235.341 2.56296C238.082 3.3832 241.519 5.6809 240.638 11.2524C239.654 17.4705 237.107 19.1305 235.823 19.8933C235.496 20.0874 235.417 19.9275 235.304 19.5662C234.948 18.2237 234.693 16.8563 234.542 15.4756C234.318 14.1319 234.216 12.7707 234.238 11.4086C234.238 10.805 234.235 8.60609 231.24 8.5808C229.555 8.56713 230.185 8.63411 228.388 8.63411C228.131 8.63411 227.905 8.62249 227.696 8.60404H227.694C221.486 8.60336 222.47 4.54179 222.47 2.73657Z" fill="#0F1011"/>
<path d="M230.104 13.4981C230.377 13.4981 230.599 13.2764 230.599 13.0029C230.599 12.7294 230.377 12.5077 230.104 12.5077C229.83 12.5077 229.609 12.7294 229.609 13.0029C229.609 13.2764 229.83 13.4981 230.104 13.4981Z" fill="#0F1011"/>
<path d="M226.197 13.1779C226.471 13.1779 226.692 12.9562 226.692 12.6827C226.692 12.4092 226.471 12.1874 226.197 12.1874C225.924 12.1874 225.702 12.4092 225.702 12.6827C225.702 12.9562 225.924 13.1779 226.197 13.1779Z" fill="#0F1011"/>
<path d="M225.339 11.6273C225.279 11.6254 225.222 11.6003 225.18 11.5572C225.138 11.5141 225.114 11.4564 225.114 11.3962C225.113 11.336 225.136 11.278 225.178 11.2344C225.219 11.1907 225.276 11.1648 225.336 11.1622L226.648 11.1458C226.709 11.1479 226.767 11.1726 226.81 11.215C226.854 11.2575 226.88 11.3147 226.883 11.3754C226.884 11.406 226.878 11.4363 226.867 11.4647C226.856 11.4931 226.839 11.5189 226.817 11.5408C226.796 11.5627 226.771 11.5801 226.743 11.5921C226.715 11.6042 226.684 11.6106 226.654 11.6109L225.342 11.6273H225.339Z" fill="#0F1011"/>
<path d="M231.171 12.1058C231.153 12.1058 231.135 12.1036 231.117 12.0993L229.823 11.7879C229.765 11.7724 229.714 11.7345 229.683 11.6823C229.652 11.63 229.642 11.5677 229.657 11.5086C229.671 11.4494 229.708 11.3982 229.759 11.3658C229.811 11.3335 229.873 11.3226 229.932 11.3354L231.225 11.6468C231.281 11.6601 231.329 11.6933 231.362 11.74C231.394 11.7867 231.409 11.8437 231.402 11.9002C231.395 11.9568 231.368 12.0089 231.326 12.0468C231.283 12.0846 231.228 12.1056 231.171 12.1058Z" fill="#0F1011"/>
<path d="M232.68 14.2148C232.643 14.7653 232.824 15.3082 233.184 15.7262C233.544 16.1442 234.054 16.4037 234.604 16.4486C235.154 16.4935 235.699 16.3202 236.122 15.9661C236.545 15.6121 236.812 15.1058 236.865 14.5566C236.892 14.2809 236.864 14.0026 236.781 13.7381C236.699 13.4737 236.564 13.2285 236.384 13.0173C236.205 12.8061 235.985 12.6331 235.738 12.5086C235.49 12.3841 235.22 12.3107 234.944 12.2927C233.448 12.2452 232.775 13.0593 232.68 14.2148Z" fill="#E98862"/>
<g opacity="0.15">
<path d="M227.906 15.7497C227.947 15.7497 227.986 15.7351 228.017 15.7084C228.048 15.6817 228.069 15.6447 228.075 15.6042C228.081 15.5637 228.072 15.5224 228.05 15.4878C228.029 15.4531 227.995 15.4275 227.956 15.4155L226.949 15.1062L227.653 13.5374C227.663 13.5169 227.668 13.4947 227.669 13.4721C227.67 13.4495 227.666 13.427 227.658 13.4058C227.65 13.3846 227.638 13.3652 227.623 13.3486C227.607 13.3321 227.589 13.3189 227.568 13.3096C227.548 13.3003 227.525 13.2952 227.503 13.2946C227.48 13.294 227.458 13.2979 227.436 13.3061C227.415 13.3142 227.396 13.3265 227.38 13.3422C227.363 13.3578 227.35 13.3766 227.341 13.3973L226.558 15.1427C226.548 15.1648 226.543 15.1888 226.543 15.213C226.543 15.2372 226.548 15.2612 226.558 15.2833C226.568 15.3053 226.582 15.325 226.601 15.3411C226.619 15.3571 226.64 15.369 226.663 15.3762L227.855 15.7422C227.872 15.7472 227.889 15.7497 227.906 15.7497Z" fill="black"/>
</g>
<path d="M229.875 16.9032C229.875 16.9032 228.047 17.0959 226.765 16.6482C226.765 16.6482 226.775 17.8523 228.221 17.9708C229.668 18.0894 229.875 16.9032 229.875 16.9032Z" fill="white"/>
<path d="M111.48 13.1294C111.631 12.7449 111.701 12.4117 111.543 12.3228C110.831 11.923 107.161 15.7747 106.506 16.4305L108.556 15.5368L107.292 16.8014L110.714 18.5102C110.714 18.5102 118.777 14.4968 117.194 11.6591C116.514 10.4394 113.757 11.747 111.48 13.1294Z" fill="#E98862"/>
<path d="M85.271 163.302L78.1438 162.455C78.4647 159.757 78.8273 156.517 78.8523 155.985C78.8506 156.02 78.8506 156.048 78.8506 156.069H86.0277C86.027 156.285 86.027 156.939 85.271 163.302Z" fill="#E98862"/>
<path d="M56.6727 164.16L49.4956 164.137C49.4956 164.137 49.5195 156.726 49.5195 156.069H56.6966C56.6966 156.728 56.6727 164.16 56.6727 164.16Z" fill="#E98862"/>
<path d="M75.2747 161.036L87.9181 160.82C87.3241 145.772 87.2882 129.987 87.1026 114.902C84.6351 98.6424 83.335 80.7878 80.2895 64.645L80.1982 64.6721L79.9313 62.8504L53.931 61.2445C53.931 61.2445 49.1907 136.998 47.6462 160.627L60.2469 161.692C62.5169 138.525 66.0303 104.768 68.1913 80.4306C70.6728 92.2797 72.3608 104.548 74.5191 116.296C74.9497 131.002 75.3147 146.375 75.2747 161.036Z" fill="#262626"/>
<path d="M65.3978 166.936C65.5908 166.935 65.7815 166.894 65.9581 166.817C66.1346 166.739 66.2932 166.625 66.424 166.483C66.5547 166.341 66.6547 166.174 66.7179 165.991C66.781 165.809 66.8058 165.615 66.7908 165.423C66.7701 165.156 66.6735 164.901 66.5125 164.687C66.3515 164.474 66.1328 164.31 65.8821 164.217L57.5286 161.419C57.3668 161.365 57.1953 161.347 57.0259 161.366C56.8565 161.385 56.6932 161.44 56.547 161.528C55.3987 162.325 54.0248 162.732 52.6276 162.69C51.5394 162.613 50.4947 162.231 49.6129 161.589C49.5354 161.525 49.4415 161.485 49.342 161.473C49.2425 161.461 49.1415 161.477 49.051 161.52C48.9604 161.563 48.884 161.631 48.8306 161.716C48.7771 161.8 48.7489 161.899 48.7493 161.999V166.084C48.7493 166.204 48.7731 166.324 48.8193 166.435C48.8655 166.546 48.9333 166.647 49.0187 166.732C49.1041 166.817 49.2054 166.885 49.3169 166.93C49.4284 166.976 49.5478 166.999 49.6683 166.999L65.3978 166.936Z" fill="#C1D8ED"/>
<path d="M94.0149 166.936C94.2079 166.935 94.3986 166.894 94.5752 166.817C94.7518 166.739 94.9104 166.625 95.0412 166.483C95.1719 166.341 95.272 166.174 95.3352 165.991C95.3983 165.809 95.4232 165.616 95.4083 165.423C95.3874 165.156 95.2908 164.901 95.1298 164.687C94.9688 164.474 94.7501 164.311 94.4995 164.217L86.1457 161.419C85.9839 161.365 85.8124 161.347 85.643 161.366C85.4736 161.385 85.3103 161.44 85.1641 161.528C84.0158 162.325 82.6419 162.732 81.2447 162.69C80.1566 162.613 79.1121 162.231 78.2304 161.589C78.1529 161.525 78.0589 161.485 77.9594 161.473C77.8599 161.461 77.759 161.477 77.6684 161.52C77.5779 161.563 77.5014 161.631 77.448 161.716C77.3946 161.8 77.3664 161.899 77.3667 161.999V166.084C77.3667 166.204 77.3905 166.323 77.4367 166.435C77.4829 166.546 77.5506 166.647 77.636 166.732C77.7213 166.817 77.8226 166.884 77.9341 166.93C78.0455 166.976 78.1649 166.999 78.2854 166.999L94.0149 166.936Z" fill="#C1D8ED"/>
<path d="M62.4265 26.5069C62.4265 26.5069 65.0691 25.1056 64.4792 17.9094L69.9393 16.8971C69.9393 16.8971 69.3241 23.349 72.0879 25.3975L62.4265 26.5069Z" fill="#E98862"/>
<g opacity="0.15">
<path d="M70.9694 24.0485L66.4331 20.5782L69.996 20.5413C70.0991 21.7608 70.4292 22.9503 70.9694 24.0485Z" fill="black"/>
</g>
<path d="M61.3816 15.1188C61.7596 17.3024 62.951 19.3697 64.8768 20.0745C66.9763 20.9075 69.2476 21.2143 71.4928 20.9682C77.4703 20.4781 76.2878 6.88737 73.4497 4.24687C70.6117 1.60637 62.2825 3.28069 61.2695 7.69496C60.7456 9.97934 61.021 13.0405 61.3816 15.1188Z" fill="#E98862"/>
<path d="M75.4207 4.71611C75.2423 4.43307 74.9925 4.20203 74.6965 4.04624C72.042 2.60296 67.1225 2.10363 64.7599 2.81041C62.0193 3.63065 58.5821 5.92835 59.4625 11.4999C59.4998 11.7346 59.5398 11.9606 59.5814 12.1834C59.5814 12.1834 60.322 15.0375 60.8347 15.8919C61.3473 16.7463 62.8853 19.3096 62.8853 19.3096C62.8853 19.3096 63.8107 19.8738 64.2767 20.1414C64.6037 20.3359 64.683 20.1777 64.7965 19.8144C65.1926 18.5464 65.5825 13.5303 65.2712 9.88773L71.7125 9.66524L72.8345 6.47211L73.7545 9.66524H75.948C76.2423 7.93453 76.5458 5.97347 75.4207 4.71611Z" fill="#0F1011"/>
<path d="M69.9313 13.437C70.2048 13.437 70.4265 13.2153 70.4265 12.9418C70.4265 12.6683 70.2048 12.4465 69.9313 12.4465C69.6577 12.4465 69.436 12.6683 69.436 12.9418C69.436 13.2153 69.6577 13.437 69.9313 13.437Z" fill="#0F1011"/>
<path d="M73.8382 13.1167C74.1117 13.1167 74.3335 12.895 74.3335 12.6215C74.3335 12.348 74.1117 12.1263 73.8382 12.1263C73.5647 12.1263 73.343 12.348 73.343 12.6215C73.343 12.895 73.5647 13.1167 73.8382 13.1167Z" fill="#0F1011"/>
<path d="M74.696 11.5658H74.6933L73.3816 11.5497C73.3199 11.5493 73.2608 11.5244 73.2175 11.4805C73.1741 11.4366 73.15 11.3772 73.1504 11.3155C73.1508 11.2537 73.1757 11.1947 73.2197 11.1513C73.2636 11.108 73.3229 11.0838 73.3847 11.0843H73.3874L74.6991 11.1007C74.7593 11.1033 74.816 11.1292 74.8575 11.1728C74.899 11.2165 74.9219 11.2745 74.9215 11.3347C74.9211 11.3949 74.8974 11.4526 74.8554 11.4957C74.8133 11.5388 74.7562 11.5639 74.696 11.5658Z" fill="#0F1011"/>
<path d="M68.8623 12.0446C68.8054 12.0445 68.7505 12.0235 68.708 11.9856C68.6655 11.9477 68.6384 11.8956 68.6317 11.8391C68.6251 11.7825 68.6394 11.7255 68.6719 11.6788C68.7044 11.6321 68.753 11.599 68.8083 11.5856L70.1019 11.2743C70.1613 11.2614 70.2234 11.2723 70.2749 11.3047C70.3264 11.337 70.3632 11.3883 70.3774 11.4474C70.3916 11.5065 70.3821 11.5689 70.3509 11.6211C70.3197 11.6733 70.2694 11.7112 70.2106 11.7268L68.917 12.0381C68.8991 12.0425 68.8807 12.0447 68.8623 12.0446Z" fill="#0F1011"/>
<path d="M67.3554 14.1537C67.3971 14.7067 67.2184 15.2537 66.8581 15.6754C66.4979 16.097 65.9855 16.359 65.4328 16.4041C64.88 16.4493 64.3319 16.2739 63.908 15.9163C63.4842 15.5587 63.219 15.0479 63.1705 14.4955C63.1431 14.2198 63.1716 13.9414 63.2541 13.6769C63.3366 13.4124 63.4715 13.1673 63.6508 12.956C63.8301 12.7448 64.05 12.5718 64.2975 12.4473C64.545 12.3229 64.8151 12.2495 65.0915 12.2316C66.5878 12.1841 67.26 12.9982 67.3554 14.1537Z" fill="#E98862"/>
<g opacity="0.15">
<path d="M72.13 15.6886C72.089 15.6886 72.0495 15.6739 72.0184 15.6472C71.9874 15.6205 71.967 15.5836 71.9609 15.5431C71.9548 15.5026 71.9634 15.4613 71.9853 15.4266C72.0071 15.392 72.0406 15.3663 72.0797 15.3543L73.0869 15.045L72.3822 13.476C72.3722 13.4554 72.3664 13.433 72.3652 13.4101C72.364 13.3873 72.3674 13.3644 72.3752 13.3429C72.383 13.3214 72.3951 13.3017 72.4107 13.2849C72.4263 13.2681 72.4451 13.2547 72.4659 13.2453C72.4868 13.2359 72.5094 13.2308 72.5323 13.2304C72.5551 13.2299 72.5779 13.234 72.5992 13.2425C72.6204 13.251 72.6398 13.2636 72.656 13.2797C72.6723 13.2958 72.6852 13.315 72.6939 13.3362L73.4779 15.0816C73.4878 15.1037 73.493 15.1276 73.4929 15.1519C73.4929 15.1761 73.4877 15.2001 73.4778 15.2221C73.4678 15.2442 73.4532 15.2639 73.435 15.2799C73.4168 15.2959 73.3955 15.3079 73.3723 15.315L72.1816 15.6811C72.1649 15.6862 72.1475 15.6887 72.13 15.6886Z" fill="black"/>
</g>
<path d="M70.1606 16.842C70.1606 16.842 71.9884 17.0348 73.2707 16.5871C73.2707 16.5871 73.2608 17.7911 71.8141 17.9097C70.3674 18.0283 70.1606 16.842 70.1606 16.842Z" fill="white"/>
<path d="M107.087 13.7583L94.3051 31.4902L77.5417 25.1333C76.5225 24.7705 75.452 24.5718 74.3705 24.5448C74.1552 24.5345 73.8103 24.5277 73.3657 24.5209C73.2771 26.4006 61.6365 26.3937 61.3901 24.4764C58.1027 24.4798 55.4061 25.4881 53.8439 27.0499C48.4611 32.4328 55.0674 41.6058 55.0674 48.7829C55.0674 55.9601 51.8206 59.1795 52.0599 62.8638C52.4358 68.6533 80.5735 67.2862 82.0052 63.995C83.4816 60.6047 80.4843 58.5131 80.618 47.4193C80.6641 43.3943 81.5886 38.7527 81.7701 34.7055L94.3352 39.4715C95.1019 39.7624 95.9432 39.7923 96.7286 39.5563C97.514 39.3204 98.1996 38.8319 98.679 38.1666L113.132 18.1158L107.087 13.7583Z" fill="#367CFF"/>
<path d="M73.3654 24.5205C73.2769 26.4002 72.2547 29.1651 69.1002 29.3736C64.8964 29.6504 61.6363 26.3934 61.3899 24.4761H61.4005C65.539 24.4761 70.9512 24.4829 73.3654 24.5205Z" fill="#E98862"/>
<path d="M61.9139 59.0148L42.2247 54.3589C41.6462 54.2225 41.1088 53.9498 40.6573 53.5634C40.2057 53.1771 39.8532 52.6883 39.6291 52.1379C39.405 51.5875 39.3158 50.9914 39.369 50.3995C39.4221 49.8076 39.6162 49.2371 39.9348 48.7354L53.3793 27.5667L59.6702 31.5616L49.0337 48.3116L63.6272 51.7635L61.9139 59.0148Z" fill="#367CFF"/>
<path d="M214.787 163.302C214.03 156.939 214.03 156.285 214.03 156.069H221.207C221.207 156.048 221.207 156.019 221.207 155.985C221.232 156.517 221.595 159.757 221.915 162.455L214.787 163.302Z" fill="#E98862"/>
<path d="M243.384 164.16C243.384 164.16 243.36 156.728 243.36 156.069H250.537C250.537 156.726 250.561 164.137 250.561 164.137L243.384 164.16Z" fill="#E98862"/>
<path d="M252.411 160.628C250.876 137.144 246.126 61.2458 246.126 61.2458L220.126 62.8508L219.859 64.6724L219.767 64.6454C216.718 80.8062 215.421 98.6554 212.95 114.931C212.776 130.003 212.728 145.79 212.138 160.821L224.784 161.036C224.744 146.187 225.458 130.638 225.897 115.759C225.897 115.759 228.673 96.4031 231.889 80.6753C234.058 105.062 237.536 138.461 239.812 161.693L252.411 160.628Z" fill="#262626"/>
<path d="M234.659 166.936C234.466 166.935 234.276 166.894 234.099 166.817C233.922 166.739 233.764 166.625 233.633 166.483C233.502 166.341 233.402 166.174 233.339 165.991C233.276 165.809 233.251 165.616 233.266 165.423C233.287 165.156 233.383 164.901 233.544 164.687C233.705 164.474 233.924 164.311 234.175 164.217L242.528 161.419C242.69 161.365 242.862 161.347 243.031 161.366C243.201 161.385 243.364 161.44 243.51 161.528C244.658 162.325 246.032 162.732 247.429 162.69C248.518 162.613 249.562 162.231 250.444 161.589C250.521 161.525 250.615 161.485 250.715 161.473C250.814 161.461 250.915 161.477 251.006 161.52C251.096 161.563 251.173 161.631 251.226 161.716C251.28 161.8 251.308 161.899 251.308 161.999V166.084C251.308 166.204 251.284 166.324 251.238 166.435C251.192 166.546 251.124 166.647 251.038 166.732C250.953 166.817 250.852 166.885 250.74 166.93C250.629 166.976 250.509 166.999 250.389 166.999L234.659 166.936Z" fill="#C1D8ED"/>
<path d="M206.042 166.936C205.849 166.935 205.658 166.894 205.482 166.817C205.305 166.739 205.146 166.625 205.016 166.483C204.885 166.341 204.785 166.174 204.722 165.991C204.659 165.809 204.634 165.615 204.649 165.423C204.67 165.156 204.766 164.901 204.927 164.687C205.088 164.474 205.307 164.31 205.558 164.217L213.911 161.419C214.073 161.365 214.244 161.347 214.414 161.366C214.583 161.385 214.747 161.44 214.893 161.528C216.041 162.325 217.415 162.732 218.812 162.69C219.9 162.613 220.945 162.231 221.827 161.589C221.904 161.525 221.998 161.485 222.098 161.473C222.197 161.461 222.298 161.477 222.389 161.52C222.479 161.563 222.556 161.631 222.609 161.716C222.662 161.8 222.691 161.899 222.69 161.999V166.084C222.69 166.204 222.667 166.324 222.62 166.435C222.574 166.546 222.506 166.647 222.421 166.732C222.336 166.817 222.234 166.885 222.123 166.93C222.011 166.976 221.892 166.999 221.771 166.999L206.042 166.936Z" fill="#C1D8ED"/>
<path d="M246.213 27.0496C244.651 25.4877 241.955 24.4795 238.667 24.4761C238.421 26.3934 226.78 26.4002 226.691 24.5205C226.247 24.5273 225.902 24.5342 225.687 24.5444C221.636 24.719 219.669 26.4785 218.817 29.0995L209.935 48.1106L189.156 53.7669L191.113 60.9573L213.56 54.8476C214.082 54.7055 214.567 54.4513 214.981 54.1028C215.395 53.7543 215.728 53.3197 215.957 52.8294L219.363 45.5392C219.405 46.1773 219.433 46.8037 219.439 47.4189C219.573 58.5127 216.575 60.6043 218.052 63.9946C219.484 67.2859 247.622 68.6529 247.998 62.8634C248.237 59.1791 244.99 55.9631 244.99 48.7826C244.99 41.602 251.596 32.4334 246.213 27.0496Z" fill="#367CFF"/>
<path d="M226.691 24.5205C226.78 26.4002 227.802 29.1651 230.956 29.3736C235.16 29.6504 238.421 26.3934 238.667 24.4761H238.656C234.518 24.4761 229.104 24.4829 226.691 24.5205Z" fill="#E98862"/>
<path d="M68.8508 53.3565C69.4202 53.178 70.0094 53.0703 70.6051 53.0356C71.7555 53.0356 72.1912 54.202 71.0894 54.6203C70.2064 54.9426 69.2888 55.1605 68.3552 55.2697" fill="#E98862"/>
<path d="M189.927 53.2861C190.466 53.1173 191.023 53.0154 191.587 52.9826C192.675 52.9826 193.087 54.0858 192.045 54.4816C191.21 54.7867 190.342 54.9932 189.459 55.0967" fill="#E98862"/>
<path d="M258.011 54.1644H40.5576V118.664H258.011V54.1644Z" fill="#C1D8ED"/>
<path d="M239.092 55.3435C238.191 55.5543 232.982 56.6422 232.946 57.457C232.924 57.946 235.297 57.9621 235.297 57.9621" fill="#E98862"/>
<path d="M238.64 60.0141C238.64 60.0141 230.978 64.7479 229.401 61.9068C228.573 60.4139 232.599 58.2731 235.192 57.0961L238.992 56.2058" fill="#E98862"/>
<path d="M239.364 61.456L236.811 54.4559L248.83 50.0687L241.075 32.6077L247.886 29.5824L257.26 50.689C257.467 51.1556 257.576 51.66 257.581 52.1706C257.585 52.6813 257.484 53.1874 257.285 53.6575C257.085 54.1276 256.791 54.5516 256.421 54.9033C256.05 55.2549 255.612 55.5267 255.132 55.7017L239.364 61.456Z" fill="#367CFF"/>
<path d="M184.784 54.4816C185.017 55.4754 185.86 55.6685 188.311 55.6685C190.719 55.6685 191.357 54.8141 191.357 53.4778C191.357 52.1415 189.779 51.9771 187.996 51.9771C184.803 51.9771 184.507 53.299 184.784 54.4816Z" fill="#E98862"/>
<path d="M63.4142 54.6203C63.6606 55.6709 64.5509 55.875 67.1429 55.875C69.6877 55.875 70.3624 54.973 70.3624 53.5592C70.3624 52.1453 68.6945 51.9723 66.8097 51.9723C63.4337 51.9723 63.121 53.3702 63.4142 54.6203Z" fill="#E98862"/>
<path d="M29.1555 167H10.5948C7.36787 162.756 1.71059 154.195 5.36579 150.539C7.02883 148.88 8.85695 150.458 10.5583 153.289C9.97453 147.743 10.5583 142.443 14.4182 140.895C17.9322 139.489 19.5033 143.737 20.11 149.437C21.8383 146.195 24.1158 143.914 27.0844 144.094C31.3323 144.348 30.307 150.013 27.822 156.285C29.7078 154.852 31.6781 154.145 33.5978 154.775C37.6204 156.093 33.8644 161.734 29.1555 167Z" fill="#C1D8ED"/>
<path d="M62.0688 98.0186H57.0449V78.5075H50.6128V74.3266H68.5019V78.5075H62.0688V98.0186Z" fill="white"/>
<path d="M91.5594 98.0186H86.5538V87.7926H77.171V98.0186H72.147V74.3266H77.171V83.6118H86.5532V74.3266H91.5594V98.0186Z" fill="white"/>
<path d="M112.043 98.0186L110.325 92.3795H101.689L99.9708 98.0186H94.5586L102.92 74.2316H109.061L117.455 98.0186H112.043ZM109.126 88.1651C107.538 83.0555 106.644 80.1657 106.444 79.4959C106.244 78.826 106.101 78.2967 106.015 77.908C105.658 79.291 104.637 82.7101 102.952 88.1651H109.126Z" fill="white"/>
<path d="M141.454 98.0186H135.07L124.764 80.0964H124.618C124.823 83.2623 124.926 85.5201 124.926 86.8698V98.0186H120.437V74.3266H126.773L137.063 92.0719H137.176C137.014 88.9928 136.933 86.8161 136.933 85.5417V74.3266H141.454V98.0186Z" fill="white"/>
<path d="M166.475 98.0186H160.771L154.564 88.0366L152.442 89.5599V98.0186H147.418V74.3266H152.442V85.1682L154.419 82.3811L160.836 74.3266H166.41L158.145 84.811L166.475 98.0186Z" fill="white"/>
<path d="M186.768 84.0817L191.711 74.3266H197.123L189.262 88.7971V98.0186H184.273V88.9618L176.412 74.329H181.857L186.768 84.0817Z" fill="white"/>
<path d="M221.608 86.1398C221.608 90.061 220.636 93.0751 218.691 95.182C216.747 97.2889 213.96 98.3421 210.329 98.3416C206.7 98.3416 203.913 97.2884 201.968 95.182C200.023 93.0755 199.051 90.0507 199.052 86.1074C199.052 82.1643 200.026 79.153 201.976 77.0734C203.926 74.9939 206.721 73.954 210.362 73.9538C214.002 73.9538 216.787 75.0019 218.715 77.098C220.643 79.1942 221.608 82.2081 221.608 86.1398ZM204.318 86.1398C204.318 88.7869 204.82 90.7806 205.825 92.1208C206.829 93.4609 208.331 94.1308 210.329 94.1304C214.337 94.1304 216.341 91.4674 216.342 86.1415C216.342 80.8047 214.348 78.1364 210.361 78.1367C208.362 78.1367 206.855 78.8088 205.84 80.1531C204.824 81.4974 204.317 83.493 204.318 86.1398Z" fill="white"/>
<path d="M245.801 74.3266V89.6563C245.836 91.2687 245.43 92.8602 244.626 94.2582C243.828 95.5893 242.644 96.6462 241.231 97.2883C239.581 98.0259 237.787 98.3857 235.981 98.3416C232.934 98.3416 230.569 97.561 228.884 95.9998C227.198 94.4386 226.355 92.3024 226.354 89.591V74.3266H231.363V88.8295C231.363 90.6555 231.73 91.9951 232.465 92.8484C233.199 93.7017 234.414 94.1284 236.111 94.1286C237.752 94.1286 238.943 93.6992 239.683 92.8402C240.423 91.9812 240.794 90.6335 240.794 88.7971V74.3266H245.801Z" fill="white"/>
</svg>
