<svg width="244" height="203" viewBox="0 0 244 203" fill="none" xmlns="http://www.w3.org/2000/svg">
<path d="M104.97 12.4953H92.6008V202.674H104.97V12.4953Z" fill="#C1D8ED"/>
<g opacity="0.63">
<path d="M104.97 19.8986V28.2158L92.601 23.6834V15.3663L104.97 19.8986Z" fill="#F3F5FD"/>
<path d="M104.97 41.3758V49.693L92.601 45.1606V36.8435L104.97 41.3758Z" fill="#F3F5FD"/>
<path d="M104.97 62.8531V71.1667L92.601 66.6343V58.3208L104.97 62.8531Z" fill="#F3F5FD"/>
<path d="M104.97 84.3267V92.6439L92.601 88.1115V79.7944L104.97 84.3267Z" fill="#F3F5FD"/>
<path d="M104.97 105.804V114.121L92.601 109.589V101.272L104.97 105.804Z" fill="#F3F5FD"/>
<path d="M104.97 127.278V135.595L92.601 131.062V122.745L104.97 127.278Z" fill="#F3F5FD"/>
<path d="M104.97 148.755V157.072L92.601 152.54V144.222L104.97 148.755Z" fill="#F3F5FD"/>
<path d="M104.97 170.232V178.546L92.601 174.013V165.7L104.97 170.232Z" fill="#F3F5FD"/>
<path d="M104.97 191.706V200.023L92.601 195.49V187.173L104.97 191.706Z" fill="#F3F5FD"/>
</g>
<path d="M230.867 12.4949H218.496V202.672H230.867V12.4949Z" fill="#C1D8ED"/>
<g opacity="0.63">
<path d="M230.866 19.8987V28.2158L218.497 23.6835V15.3663L230.866 19.8987Z" fill="#F3F5FD"/>
<path d="M230.866 41.376V49.6931L218.497 45.1607V36.8436L230.866 41.376Z" fill="#F3F5FD"/>
<path d="M230.866 62.8532V71.1667L218.497 66.6343V58.3208L230.866 62.8532Z" fill="#F3F5FD"/>
<path d="M230.866 84.3268V92.644L218.497 88.1116V79.7945L230.866 84.3268Z" fill="#F3F5FD"/>
<path d="M230.866 105.804V114.121L218.497 109.589V101.272L230.866 105.804Z" fill="#F3F5FD"/>
<path d="M230.866 127.278V135.595L218.497 131.062V122.745L230.866 127.278Z" fill="#F3F5FD"/>
<path d="M230.866 148.755V157.072L218.497 152.54V144.223L230.866 148.755Z" fill="#F3F5FD"/>
<path d="M230.866 170.232V178.546L218.497 174.013V165.7L230.866 170.232Z" fill="#F3F5FD"/>
<path d="M230.866 191.706V200.023L218.497 195.491V187.173L230.866 191.706Z" fill="#F3F5FD"/>
</g>
<path d="M84.754 63.9098C84.754 63.9098 89.0718 64.3306 90.0235 60.4996C90.394 59.007 88.3066 57.8314 87.8075 58.2803C85.7128 60.1659 84.9985 60.5136 84.2592 58.683L82.0989 60.6545" fill="#E98862"/>
<path d="M86.6274 55.6343L84.7886 56.0451L87.1094 66.4354L88.9482 66.0246L86.6274 55.6343Z" fill="#9EBCEA"/>
<path d="M90.5952 67.2284C90.6585 67.5828 90.6378 67.9471 90.5349 68.292C90.432 68.6369 90.2496 68.953 90.0025 69.2147C89.9832 69.2355 89.9586 69.2505 89.9313 69.2583C89.9041 69.2661 89.8752 69.2663 89.8478 69.2588C89.8205 69.2514 89.7957 69.2366 89.7761 69.2161C89.7565 69.1956 89.7429 69.1702 89.7367 69.1425L89.3185 67.2678L87.2636 67.7261L87.6811 69.5975C87.687 69.6251 87.6854 69.6537 87.6763 69.6803C87.6673 69.707 87.6512 69.7307 87.6297 69.749C87.6083 69.7672 87.5823 69.7793 87.5545 69.7839C87.5267 69.7885 87.4982 69.7855 87.472 69.7752C87.0098 69.5924 86.619 69.2653 86.3577 68.8425C86.0964 68.4197 85.9787 67.9238 86.0219 67.4287C86.0652 66.9336 86.2672 66.4657 86.5978 66.0946C86.9285 65.7235 87.3701 65.4691 87.857 65.3693C88.1589 65.3114 88.4692 65.3136 88.7702 65.3757C89.0712 65.4378 89.3571 65.5587 89.6114 65.7313C89.8657 65.904 90.0835 66.1251 90.2523 66.382C90.4211 66.6389 90.5376 66.9265 90.5952 67.2284Z" fill="#9EBCEA"/>
<path d="M87.6406 53.9766C87.7072 54.2751 87.7139 54.5838 87.6603 54.8849C87.6067 55.186 87.4939 55.4735 87.3284 55.7307C87.1629 55.9879 86.948 56.2096 86.6961 56.3831C86.4443 56.5567 86.1605 56.6785 85.8613 56.7415C85.5591 56.8001 85.2483 56.7985 84.9467 56.7368C84.6451 56.6751 84.3587 56.5545 84.1038 56.382C83.8488 56.2095 83.6304 55.9884 83.461 55.7314C83.2916 55.4744 83.1746 55.1865 83.1166 54.8842C83.0529 54.5305 83.073 54.1667 83.1754 53.8222C83.2778 53.4777 83.4595 53.162 83.706 52.9004C83.7253 52.8798 83.7499 52.8648 83.7771 52.8571C83.8043 52.8494 83.8331 52.8492 83.8604 52.8566C83.8877 52.8641 83.9125 52.8788 83.932 52.8992C83.9516 52.9197 83.9652 52.945 83.9714 52.9726L84.3892 54.8441L86.4442 54.3854L86.0245 52.5104C86.0185 52.4828 86.0201 52.4542 86.0292 52.4275C86.0382 52.4009 86.0543 52.3771 86.0758 52.3589C86.0973 52.3407 86.1233 52.3287 86.1511 52.3241C86.1789 52.3196 86.2074 52.3226 86.2336 52.333C86.5848 52.4708 86.8968 52.6927 87.1422 52.9793C87.3875 53.2659 87.5587 53.6084 87.6406 53.9766Z" fill="#9EBCEA"/>
<path d="M82.3672 60.4129C83.1675 59.6928 85.1202 57.3973 85.9223 57.9047C86.4037 58.2092 85.1852 60.4129 85.1852 60.4129" fill="#E98862"/>
<path d="M68.4621 80.8219C68.3899 80.8219 68.3185 80.8199 68.2479 80.8161C67.7169 80.7872 67.1972 80.6509 66.7202 80.4156C66.2433 80.1803 65.819 79.8508 65.4729 79.447L48.7581 59.9499L54.7364 54.8249L68.7716 71.197L81.486 59.2731L86.8728 65.0153L71.1555 79.7558C70.4258 80.4405 69.4628 80.8217 68.4621 80.8219Z" fill="#367CFF"/>
<path d="M54.6815 197.871C54.9975 195.018 55.3525 191.59 55.3749 191.029C55.3749 191.065 55.3749 191.094 55.3749 191.117L62.9589 191.057C62.9589 191.285 62.9658 191.976 62.2204 198.706L54.6815 197.871Z" fill="#E98862"/>
<path d="M33.6813 199.904L26.0973 199.879C26.0973 199.879 26.1226 192.048 26.1226 191.354H33.7066C33.7066 192.05 33.6813 199.904 33.6813 199.904Z" fill="#E98862"/>
<path d="M42.9006 202.837C43.1046 202.836 43.3062 202.793 43.4928 202.711C43.6794 202.628 43.8471 202.508 43.9852 202.358C44.1234 202.208 44.2292 202.031 44.2959 201.839C44.3626 201.646 44.3889 201.441 44.373 201.238C44.3509 200.956 44.2488 200.687 44.0787 200.461C43.9086 200.235 43.6776 200.063 43.4127 199.964L34.5853 197.007C34.4143 196.95 34.2331 196.931 34.0541 196.951C33.875 196.971 33.7024 197.03 33.5481 197.123C32.3345 197.964 30.8828 198.395 29.4065 198.35C28.2566 198.269 27.1529 197.865 26.2212 197.186C26.1393 197.119 26.04 197.077 25.9349 197.064C25.8298 197.051 25.7233 197.069 25.6276 197.114C25.532 197.159 25.4512 197.231 25.3948 197.321C25.3383 197.41 25.3084 197.514 25.3086 197.62V201.937C25.3086 202.065 25.3337 202.191 25.3826 202.308C25.4314 202.426 25.5029 202.533 25.5931 202.622C25.6833 202.712 25.7904 202.783 25.9081 202.832C26.0259 202.88 26.152 202.905 26.2793 202.904L42.9006 202.837Z" fill="#C1D8ED"/>
<path d="M71.4903 202.471C71.6942 202.469 71.8955 202.424 72.0814 202.34C72.2673 202.256 72.4339 202.135 72.5709 201.984C72.7078 201.833 72.8121 201.655 72.8773 201.462C72.9425 201.269 72.9671 201.064 72.9497 200.861C72.9254 200.579 72.8212 200.31 72.6493 200.086C72.4774 199.861 72.2449 199.691 71.9793 199.594L63.128 196.708C62.9566 196.653 62.7752 196.636 62.5964 196.657C62.4176 196.678 62.2455 196.738 62.0919 196.832C60.8852 197.684 59.4371 198.126 57.9604 198.094C56.8099 198.021 55.703 197.627 54.7657 196.956C54.6833 196.889 54.5836 196.847 54.4783 196.835C54.3731 196.823 54.2666 196.842 54.1712 196.888C54.0759 196.934 53.9957 197.006 53.94 197.097C53.8842 197.187 53.8552 197.291 53.8564 197.397L53.8925 201.713C53.8935 201.84 53.9197 201.966 53.9695 202.083C54.0193 202.201 54.0917 202.307 54.1826 202.396C54.2736 202.485 54.3812 202.555 54.4993 202.603C54.6175 202.65 54.7439 202.674 54.8712 202.672L71.4903 202.471Z" fill="#C1D8ED"/>
<path d="M51.9429 94.3883C50.4301 97.8661 28.734 98.9816 28.3367 92.8639C28.0839 88.9707 28.3729 85.5724 28.3729 77.9847C28.3729 70.3971 21.3919 60.7076 27.08 55.0196C28.7304 53.3692 31.5798 52.3038 35.054 52.3002C35.314 54.3262 47.6146 54.3334 47.7085 52.3471C48.178 52.3543 48.5428 52.3616 48.7703 52.3724C60.753 52.8888 55.4876 66.5256 55.372 76.5438C55.2315 88.2665 53.5031 90.8057 51.9429 94.3883Z" fill="#367CFF"/>
<path d="M64.9546 196.793L51.6782 197.109L51.2218 146.102L43.7901 108.982C42.6706 136.881 37.8638 170.424 37.4809 197.054L24.1186 197.134C23.6889 173.085 25.769 118.397 26.7333 94.8326C26.9067 90.5639 27.8601 82.7126 27.8492 80.4266C27.8348 76.8224 26.69 69.8523 26.6322 69.455C26.6297 69.4506 26.6284 69.4456 26.6286 69.4406C35.8666 65.775 33.1111 55.9013 31.8977 52.6221C32.6337 52.4184 33.3948 52.3199 34.1584 52.3296C34.6517 53.6138 36.1906 62.0443 38.7811 64.6366C40.7352 66.5904 47.1192 67.4301 48.4532 63.6496C49.6399 60.2874 49.182 53.5015 49.0152 52.3873C49.8865 52.3658 50.754 52.5091 51.5721 52.8099C51.229 66.7356 56.0358 68.9277 56.0358 68.9277V68.9314L56.3933 93.7311C56.3933 95.0565 64.8441 135.17 65.8943 143.667C66.5859 149.251 64.9546 196.793 64.9546 196.793Z" fill="#262626"/>
<path d="M26.6293 69.4403C26.6293 69.4312 26.6289 69.4292 26.6293 69.4403V69.4403Z" fill="#262626"/>
<path opacity="0.15" d="M33.6283 71.9698H52.3041V81.2021C52.3041 82.3188 51.8605 83.3896 51.071 84.1792C50.2814 84.9688 49.2105 85.4124 48.0939 85.4124H37.8374C36.7208 85.4124 35.6499 84.9688 34.8603 84.1792C34.0708 83.3896 33.6272 82.3188 33.6272 81.2021V71.9698H33.6283Z" fill="black"/>
<path d="M47.7072 52.3471C47.6133 54.3334 46.5335 57.2551 43.2001 57.4754C38.7581 57.7679 35.3128 54.3262 35.0527 52.3002H35.0636C39.4388 52.3002 45.1594 52.3074 47.7072 52.3471Z" fill="#E98862"/>
<path d="M22.9289 103.96C22.9289 105.037 23.497 108.634 22.583 108.891C22.0351 109.046 21.3879 106.363 21.3879 106.363" fill="#E98862"/>
<path d="M36.9812 112.528H28.0681V110.268C28.0669 109.462 27.7461 108.689 27.1761 108.119C26.6061 107.549 25.8334 107.228 25.0273 107.227H15.2078C14.4017 107.228 13.629 107.549 13.059 108.119C12.489 108.689 12.1682 109.462 12.1669 110.268V112.528H3.25391C2.82644 112.528 2.40307 112.612 2.00805 112.775C1.61303 112.939 1.25411 113.178 0.951862 113.481C0.64961 113.783 0.409954 114.142 0.24662 114.537C0.0832851 114.932 -0.000520301 115.355 2.43037e-06 115.783V130.221C-0.000472771 130.649 0.0833677 131.072 0.246724 131.467C0.410079 131.862 0.649742 132.221 0.95199 132.523C1.25424 132.825 1.61313 133.065 2.00813 133.228C2.40313 133.392 2.82647 133.476 3.25391 133.475H36.9812C37.8441 133.475 38.6717 133.132 39.2819 132.522C39.8921 131.912 40.235 131.084 40.2351 130.221V115.783C40.2351 114.92 39.8923 114.092 39.282 113.482C38.6718 112.871 37.8442 112.529 36.9812 112.528ZM14.146 110.268C14.1465 109.986 14.2585 109.716 14.4575 109.517C14.6565 109.318 14.9263 109.206 15.2078 109.206H25.0273C25.3087 109.206 25.5785 109.318 25.7775 109.517C25.9766 109.716 26.0886 109.986 26.089 110.268V112.528H14.146V110.268Z" fill="#9EBCEA"/>
<path d="M18.7328 103.396C18.7328 103.396 15.532 106.324 17.7433 109.594C18.6046 110.868 20.8748 110.102 20.8748 109.431C20.8748 106.614 21.0936 105.849 22.9488 106.524L22.929 103.599" fill="#E98862"/>
<path d="M24.4133 104.251L16.5432 103.981L17.4071 78.763C17.4223 78.3203 17.5121 77.8833 17.6725 77.4704L25.3179 57.8155L32.6571 60.6722L25.2536 79.7045L24.4133 104.251Z" fill="#367CFF"/>
<path opacity="0.08" d="M40.2351 120.351V130.221C40.235 131.084 39.8921 131.912 39.2819 132.522C38.6717 133.132 37.8441 133.475 36.9812 133.475H3.25391C2.82647 133.475 2.40313 133.392 2.00813 133.228C1.61313 133.065 1.25424 132.825 0.95199 132.523C0.649742 132.221 0.410079 131.862 0.246723 131.467C0.0833673 131.072 -0.000473192 130.648 2.00877e-06 130.221V120.351H40.2351Z" fill="black"/>
<path d="M9.11856 119.236H9.11819C8.44184 119.236 7.89355 119.785 7.89355 120.461V121.168C7.89355 121.844 8.44184 122.392 9.11819 122.392H9.11856C9.79491 122.392 10.3432 121.844 10.3432 121.168V120.461C10.3432 119.785 9.79491 119.236 9.11856 119.236Z" fill="white"/>
<path d="M31.1168 119.236H31.1165C30.4401 119.236 29.8918 119.785 29.8918 120.461V121.168C29.8918 121.844 30.4401 122.392 31.1165 122.392H31.1168C31.7932 122.392 32.3415 121.844 32.3415 121.168V120.461C32.3415 119.785 31.7932 119.236 31.1168 119.236Z" fill="white"/>
<path opacity="0.15" d="M56.3399 91.844H26.8015V93.5399H56.3399V91.844Z" fill="black"/>
<path d="M37.3704 53.0669C38.0854 51.8535 38.8438 49.5097 38.4863 45.1687L44.2574 44.0997C44.2574 44.0997 43.6145 50.8892 46.5106 53.0669H37.3704Z" fill="#E98862"/>
<path opacity="0.15" d="M45.3463 51.657L40.5529 47.9899L44.3178 47.9509C44.4268 49.2396 44.7756 50.4965 45.3463 51.657Z" fill="black"/>
<path d="M35.2144 42.221C35.6138 44.528 36.8728 46.7129 38.9078 47.4576C41.1262 48.3382 43.5263 48.6626 45.8989 48.4024C52.2149 47.8845 50.9657 33.5232 47.9668 30.7327C44.9678 27.9421 36.1671 29.7099 35.0967 34.3759C34.543 36.7894 34.8341 40.0249 35.2144 42.221Z" fill="#E98862"/>
<path d="M51.7467 35.9877C51.7467 35.9877 50.5095 25.7799 39.2974 28.2873C37.4845 28.768 36.936 29.2418 35.7531 30.6972C34.8754 30.1954 33.0445 32.3224 33.0445 33.0447C33.0445 33.0447 32.7679 35.031 32.5873 36.4756C32.5274 36.9184 32.5873 37.9295 32.5873 37.9295C32.5971 38.0758 32.6079 38.2224 32.6234 38.3716C33.3096 44.6916 38.5693 47.8559 38.5693 47.8559C38.5693 47.8559 39.9817 46.7869 39.4794 36.576C41.9139 36.7836 47.4845 37.0834 51.7467 35.9877Z" fill="#0F1011"/>
<path d="M44.2495 40.4438C44.5385 40.4438 44.7728 40.2095 44.7728 39.9205C44.7728 39.6315 44.5385 39.3972 44.2495 39.3972C43.9605 39.3972 43.7262 39.6315 43.7262 39.9205C43.7262 40.2095 43.9605 40.4438 44.2495 40.4438Z" fill="#0F1011"/>
<path d="M48.3782 40.1054C48.6672 40.1054 48.9015 39.8711 48.9015 39.5821C48.9015 39.2931 48.6672 39.0588 48.3782 39.0588C48.0891 39.0588 47.8549 39.2931 47.8549 39.5821C47.8549 39.8711 48.0891 40.1054 48.3782 40.1054Z" fill="#0F1011"/>
<path d="M49.2845 38.4669H49.2813L47.8952 38.4492C47.8316 38.4464 47.7716 38.4191 47.7278 38.3729C47.684 38.3268 47.6597 38.2655 47.6602 38.2019C47.6606 38.1383 47.6856 38.0773 47.7301 38.0318C47.7745 37.9862 47.8349 37.9597 47.8984 37.9577H47.9017L49.2878 37.975C49.353 37.9755 49.4154 38.0018 49.4612 38.0482C49.507 38.0946 49.5325 38.1574 49.5321 38.2226C49.5316 38.2878 49.5053 38.3502 49.4589 38.396C49.4125 38.4418 49.3497 38.4673 49.2845 38.4669Z" fill="#0F1011"/>
<path d="M43.1205 38.9725C43.0601 38.9727 43.0017 38.9507 42.9565 38.9106C42.9113 38.8706 42.8824 38.8153 42.8753 38.7553C42.8683 38.6953 42.8836 38.6348 42.9183 38.5853C42.9529 38.5359 43.0046 38.5009 43.0634 38.4871L44.43 38.1585C44.4928 38.1449 44.5585 38.1564 44.6129 38.1906C44.6673 38.2248 44.7062 38.2789 44.7212 38.3414C44.7362 38.4039 44.7261 38.4698 44.6932 38.5249C44.6602 38.5801 44.607 38.6202 44.5448 38.6366L43.1783 38.9656C43.1593 38.97 43.1399 38.9723 43.1205 38.9725Z" fill="#0F1011"/>
<path d="M44.4928 44.0419C44.4928 44.0419 46.4242 44.2456 47.7792 43.7725C47.7792 43.7725 47.7687 45.0444 46.24 45.1697C44.7113 45.2951 44.4928 44.0419 44.4928 44.0419Z" fill="#F8FCFF"/>
<path d="M41.5276 41.2012C41.5717 41.7855 41.3828 42.3636 41.0021 42.8091C40.6215 43.2547 40.08 43.5315 39.4959 43.5792C38.9119 43.6269 38.3326 43.4416 37.8848 43.0637C37.4369 42.6858 37.1567 42.1461 37.1054 41.5623C37.0765 41.271 37.1065 40.9768 37.1937 40.6974C37.2809 40.4179 37.4234 40.1588 37.6128 39.9356C37.8022 39.7124 38.0345 39.5295 38.296 39.3979C38.5575 39.2664 38.8429 39.1887 39.135 39.1697C40.7161 39.1199 41.4272 39.9787 41.5276 41.2012Z" fill="#E98862"/>
<g opacity="0.15">
<path d="M46.5724 42.8231C46.5291 42.8231 46.4873 42.8076 46.4545 42.7794C46.4217 42.7512 46.4002 42.7121 46.3937 42.6693C46.3873 42.6266 46.3964 42.5829 46.4195 42.5463C46.4425 42.5097 46.478 42.4826 46.5193 42.4699L47.5836 42.143L46.8404 40.4843C46.8207 40.4406 46.8192 40.3909 46.8361 40.3461C46.8531 40.3013 46.8872 40.2651 46.9308 40.2454C46.9745 40.2257 47.0242 40.2242 47.069 40.2412C47.1138 40.2581 47.1501 40.2922 47.1697 40.3359L47.996 42.1817C48.0065 42.2051 48.0119 42.2304 48.0119 42.256C48.0118 42.2816 48.0063 42.307 47.9957 42.3303C47.9851 42.3536 47.9697 42.3744 47.9505 42.3913C47.9312 42.4082 47.9086 42.4209 47.8841 42.4283L46.6244 42.8155C46.6075 42.8205 46.59 42.8231 46.5724 42.8231Z" fill="black"/>
</g>
<path d="M118.668 42.9982H113.094C109.695 42.9982 106.939 45.7539 106.939 49.1532V69.5918C106.939 72.9911 109.695 75.7467 113.094 75.7467H118.668C122.067 75.7467 124.823 72.9911 124.823 69.5918V49.1532C124.823 45.7539 122.067 42.9982 118.668 42.9982Z" fill="black"/>
<path d="M210.215 42.9982H204.641C201.242 42.9982 198.486 45.7539 198.486 49.1532V69.5918C198.486 72.9911 201.242 75.7468 204.641 75.7468H210.215C213.614 75.7468 216.37 72.9911 216.37 69.5918V49.1532C216.37 45.7539 213.614 42.9982 210.215 42.9982Z" fill="black"/>
<path d="M206.076 57.1662H117.595L116.243 64.1211C116.243 64.1211 116.66 67.3714 120.743 67.3714H202.927C207.008 67.3714 207.427 64.1211 207.427 64.1211L206.076 57.1662Z" fill="#C1D8ED"/>
<path opacity="0.62" d="M206.076 57.1662H117.595L116.243 64.1211C116.243 64.1211 116.66 67.3714 120.743 67.3714H202.927C207.008 67.3714 207.427 64.1211 207.427 64.1211L206.076 57.1662Z" fill="black"/>
<path d="M211.387 26.2628C209.644 23.3595 205.849 23.2432 202.927 18.4819C200.004 13.7206 193.619 2.68836 188.044 2.10764C185.992 1.89385 174.36 0.00434117 162.539 7.44309e-06C150.251 -0.00432629 137.761 1.88518 135.628 2.10764C130.054 2.68836 123.667 13.7206 120.745 18.4819C117.823 23.2432 114.028 23.3595 112.286 26.2628C112.286 26.2628 117.597 24.5181 121.344 23.8554C130.811 22.1815 153.073 21.9012 161.836 21.8568C170.599 21.9012 192.862 22.1818 202.328 23.8554C206.076 24.5181 211.387 26.2628 211.387 26.2628Z" fill="#0CBC8B"/>
<path d="M214.139 60.1095C213.916 61.2428 213.305 62.2629 212.411 62.995C211.518 63.727 210.397 64.1254 209.242 64.1218H207.426C207.426 64.1218 206.969 58.8925 201.164 58.8925C199.312 58.8925 194.338 58.9163 188.426 58.9521C180.413 58.9936 126.875 58.8925 122.506 58.8925C116.701 58.8925 116.244 64.1218 116.244 64.1218H114.428C113.273 64.1239 112.154 63.725 111.261 62.9932C110.367 62.2613 109.756 61.2421 109.531 60.1095C108.938 57.0764 108.549 54.0067 108.368 50.9213C107.471 35.6016 112.285 26.2649 112.285 26.2649C112.285 26.2649 119.598 23.4635 124.613 22.4307C133.042 20.6972 190.634 20.6972 199.057 22.4307C204.079 23.4635 211.385 26.2649 211.385 26.2649C211.385 26.2649 218.169 39.412 214.139 60.1095Z" fill="#C1D8ED"/>
<path d="M193.846 13.7867L190.528 6.98487C189.406 5.86243 174.751 4.13183 160.526 4.16795C147.173 4.20117 134.198 5.93213 133.144 6.98487L129.826 13.7867C129.685 14.0751 129.62 14.3945 129.637 14.7149C129.654 15.0353 129.752 15.3462 129.922 15.6183C130.092 15.8904 130.328 16.1148 130.609 16.2703C130.89 16.4259 131.205 16.5075 131.526 16.5075H192.146C192.467 16.5075 192.782 16.4259 193.063 16.2703C193.344 16.1148 193.58 15.8904 193.75 15.6183C193.92 15.3462 194.018 15.0353 194.035 14.7149C194.052 14.3945 193.987 14.0751 193.846 13.7867Z" fill="white"/>
<path opacity="0.27" d="M133.151 30.7789H189.938" stroke="#0F1011" stroke-width="0.347" stroke-miterlimit="10"/>
<path d="M211.834 35.5229C211.965 35.524 212.095 35.4993 212.216 35.4501C212.337 35.4008 212.448 35.3281 212.541 35.2361C212.635 35.144 212.709 35.0345 212.759 34.9137C212.81 34.7929 212.837 34.6633 212.837 34.5323C212.837 32.3116 212.075 27.0822 205.037 26.2621C199.02 25.5615 190.516 25.3827 185.561 25.3408C185.266 25.3385 184.978 25.4279 184.737 25.5964C184.496 25.7649 184.312 26.0043 184.213 26.2815C184.114 26.5587 184.103 26.8599 184.182 27.1435C184.261 27.4271 184.427 27.679 184.655 27.8645L193.254 34.8562C193.716 35.2315 194.292 35.4377 194.887 35.4405L211.834 35.5229Z" fill="#FD5D76"/>
<path d="M111.839 35.5229C111.708 35.524 111.578 35.4993 111.456 35.4501C111.335 35.4009 111.224 35.3281 111.131 35.2361C111.038 35.1441 110.963 35.0345 110.913 34.9137C110.862 34.7929 110.835 34.6633 110.835 34.5323C110.835 32.3116 111.597 27.0822 118.635 26.2621C124.652 25.5614 133.155 25.3827 138.111 25.3408C138.405 25.3387 138.693 25.4281 138.934 25.5966C139.176 25.7651 139.359 26.0045 139.458 26.2816C139.558 26.5587 139.569 26.8598 139.489 27.1434C139.41 27.4269 139.245 27.6789 139.016 27.8645L130.417 34.8562C129.956 35.2315 129.379 35.4376 128.785 35.4405L111.839 35.5229Z" fill="#FD5D76"/>
<path opacity="0.16" d="M209.297 45.7989H114.38C109.43 45.7989 108.368 47.9657 108.368 47.9657V50.9213C108.549 54.0067 108.938 57.0764 109.531 60.1096C109.756 61.2421 110.367 62.2614 111.261 62.9932C112.154 63.725 113.273 64.1239 114.428 64.1219H116.244C116.244 64.1219 116.701 58.8925 122.506 58.8925C124.361 58.8925 129.339 58.9174 135.25 58.9506C137.158 58.9604 139.165 58.9716 141.195 58.9835L146.709 59.0167C151.254 59.0449 155.58 59.0727 158.85 59.0919H159.009V59.128H159.016C159.016 59.128 160.065 59.1161 161.838 59.1099C163.61 59.1161 164.659 59.128 164.659 59.128H164.667V59.0919H164.825C168.095 59.0727 172.421 59.0449 176.966 59.0167L182.48 58.9835C184.51 58.9716 186.517 58.9604 188.425 58.9506C194.336 58.9174 199.315 58.8925 201.169 58.8925C206.974 58.8925 207.431 64.1219 207.431 64.1219H209.247C210.402 64.1239 211.521 63.7249 212.415 62.9931C213.308 62.2613 213.919 61.2421 214.144 60.1096C214.738 57.0764 215.128 54.0068 215.309 50.9213V47.9654C215.309 47.9654 214.247 45.7989 209.297 45.7989Z" fill="black"/>
<path d="M226.473 76.1624H96.9943V84.6901H226.473V76.1624Z" fill="#F3F5FD"/>
<path d="M237.955 200.019H85.5128V202.904H237.955V200.019Z" fill="#C1D8ED"/>
<path d="M228.271 133.475L244 119.236V196.717H228.271V133.475Z" fill="#C1D8ED"/>
<path d="M230.921 133.475H181.674V196.717H230.921V133.475Z" fill="#DEE8F5"/>
<g opacity="0.53">
<path d="M228.271 137.385H184.324V153.425H228.271V137.385Z" fill="#F3F5FD"/>
</g>
<g opacity="0.53">
<path d="M228.271 137.385H184.324V143.637H228.271V137.385Z" fill="#F3F5FD"/>
</g>
<path d="M230.921 133.475L244 119.236H195.837L181.674 133.475H230.921Z" fill="#F3F5FD"/>
<path opacity="0.06" d="M242.21 181.416H232.695V182.499H242.21V181.416Z" fill="#0F1011"/>
<path opacity="0.06" d="M242.21 183.606H232.695V184.69H242.21V183.606Z" fill="#0F1011"/>
<path opacity="0.06" d="M242.21 185.797H232.695V186.881H242.21V185.797Z" fill="#0F1011"/>
<path d="M225.663 202.673C227.307 202.673 228.641 201.339 228.641 199.695C228.641 198.05 227.307 196.717 225.663 196.717C224.018 196.717 222.685 198.05 222.685 199.695C222.685 201.339 224.018 202.673 225.663 202.673Z" fill="#C1D8ED"/>
<path d="M227.107 202.673C228.752 202.673 230.085 201.339 230.085 199.695C230.085 198.05 228.752 196.717 227.107 196.717C225.462 196.717 224.129 198.05 224.129 199.695C224.129 201.339 225.462 202.673 227.107 202.673Z" fill="#DEE8F5"/>
<path d="M238.303 202.673C239.947 202.673 241.281 201.339 241.281 199.695C241.281 198.05 239.947 196.717 238.303 196.717C236.658 196.717 235.325 198.05 235.325 199.695C235.325 201.339 236.658 202.673 238.303 202.673Z" fill="#C1D8ED"/>
<path d="M239.747 202.673C241.392 202.673 242.725 201.339 242.725 199.695C242.725 198.05 241.392 196.717 239.747 196.717C238.102 196.717 236.769 198.05 236.769 199.695C236.769 201.339 238.102 202.673 239.747 202.673Z" fill="#DEE8F5"/>
<path d="M187.381 202.673C189.026 202.673 190.359 201.339 190.359 199.695C190.359 198.05 189.026 196.717 187.381 196.717C185.737 196.717 184.403 198.05 184.403 199.695C184.403 201.339 185.737 202.673 187.381 202.673Z" fill="#C1D8ED"/>
<path d="M188.826 202.673C190.471 202.673 191.804 201.339 191.804 199.695C191.804 198.05 190.471 196.717 188.826 196.717C187.181 196.717 185.848 198.05 185.848 199.695C185.848 201.339 187.181 202.673 188.826 202.673Z" fill="#DEE8F5"/>
<path d="M200.021 202.673C201.666 202.673 202.999 201.339 202.999 199.695C202.999 198.05 201.666 196.717 200.021 196.717C198.377 196.717 197.043 198.05 197.043 199.695C197.043 201.339 198.377 202.673 200.021 202.673Z" fill="#C1D8ED"/>
<path d="M201.466 202.673C203.111 202.673 204.444 201.339 204.444 199.695C204.444 198.05 203.111 196.717 201.466 196.717C199.821 196.717 198.488 198.05 198.488 199.695C198.488 201.339 199.821 202.673 201.466 202.673Z" fill="#DEE8F5"/>
<path d="M186.319 131.484L196.918 121.027H215.478L205.937 131.484H186.319Z" fill="white"/>
<path d="M232.935 122.832C232.935 123.431 232.144 123.916 231.169 123.916C230.193 123.916 229.402 123.431 229.402 122.832V122.11H232.935V122.832Z" fill="#C1D8ED"/>
<path d="M231.169 123.193C232.144 123.193 232.935 122.708 232.935 122.11C232.935 121.512 232.144 121.027 231.169 121.027C230.193 121.027 229.402 121.512 229.402 122.11C229.402 122.708 230.193 123.193 231.169 123.193Z" fill="#DEE8F5"/>
<path d="M227.809 122.832C227.809 123.431 227.019 123.916 226.043 123.916C225.068 123.916 224.276 123.431 224.276 122.832V122.11H227.809V122.832Z" fill="#C1D8ED"/>
<path d="M226.044 123.193C227.019 123.193 227.81 122.708 227.81 122.11C227.81 121.512 227.019 121.027 226.044 121.027C225.068 121.027 224.277 121.512 224.277 122.11C224.277 122.708 225.068 123.193 226.044 123.193Z" fill="#DEE8F5"/>
<path d="M222.685 122.832C222.685 123.431 221.894 123.916 220.918 123.916C219.942 123.916 219.152 123.431 219.152 122.832V122.11H222.685V122.832Z" fill="#C1D8ED"/>
<path d="M220.918 123.193C221.894 123.193 222.685 122.708 222.685 122.11C222.685 121.512 221.894 121.027 220.918 121.027C219.943 121.027 219.152 121.512 219.152 122.11C219.152 122.708 219.943 123.193 220.918 123.193Z" fill="#DEE8F5"/>
<path d="M112.539 178.878H103.626C103.199 178.877 102.775 178.961 102.38 179.124C101.985 179.288 101.626 179.527 101.324 179.83C101.022 180.132 100.782 180.491 100.619 180.886C100.455 181.281 100.372 181.704 100.372 182.131V196.571C100.372 196.998 100.455 197.421 100.619 197.816C100.782 198.211 101.022 198.57 101.324 198.873C101.626 199.175 101.985 199.415 102.38 199.578C102.775 199.741 103.199 199.825 103.626 199.825H137.353C138.216 199.825 139.044 199.482 139.654 198.871C140.264 198.261 140.607 197.434 140.607 196.571V182.132C140.607 181.269 140.264 180.442 139.654 179.831C139.044 179.221 138.216 178.878 137.353 178.878H128.44M126.461 178.878H114.519H126.461Z" fill="#DEE8F5"/>
<path d="M140.607 186.7V196.571C140.607 197.434 140.264 198.261 139.654 198.871C139.044 199.482 138.216 199.825 137.353 199.825H103.626C103.199 199.825 102.775 199.741 102.38 199.578C101.985 199.415 101.626 199.175 101.324 198.873C101.022 198.57 100.782 198.211 100.619 197.816C100.455 197.421 100.372 196.998 100.372 196.571V186.701L140.607 186.7Z" fill="#F3F5FD"/>
<path opacity="0.64" d="M102.699 184.533V182.905C102.699 182.39 102.904 181.896 103.268 181.531C103.633 181.167 104.127 180.962 104.642 180.962H136.227C136.742 180.962 137.236 181.167 137.601 181.531C137.965 181.896 138.17 182.39 138.17 182.905V184.533" fill="#C1D8ED"/>
<path d="M113.098 184.533H111.148L110.101 180.684L109.92 180.019L111.737 179.524L111.921 180.196L113.098 184.533Z" fill="#C1D8ED"/>
<path d="M112.684 177.801C112.764 178.096 112.785 178.404 112.745 178.707C112.706 179.01 112.606 179.303 112.453 179.567C112.3 179.832 112.095 180.063 111.852 180.248C111.608 180.433 111.33 180.568 111.034 180.645C110.735 180.717 110.425 180.73 110.121 180.683C109.816 180.635 109.525 180.528 109.262 180.367C108.999 180.207 108.771 179.996 108.59 179.747C108.409 179.498 108.278 179.216 108.206 178.917C108.126 178.566 108.13 178.202 108.217 177.853C108.303 177.504 108.47 177.181 108.704 176.908C108.722 176.886 108.746 176.87 108.773 176.861C108.8 176.852 108.829 176.85 108.856 176.856C108.884 176.862 108.909 176.876 108.93 176.895C108.95 176.915 108.965 176.939 108.973 176.966L109.479 178.816L111.51 178.263L111.004 176.41C110.997 176.383 110.997 176.354 111.005 176.327C111.013 176.3 111.028 176.276 111.048 176.256C111.069 176.237 111.094 176.224 111.122 176.218C111.15 176.212 111.178 176.214 111.205 176.223C111.562 176.345 111.883 176.552 112.141 176.827C112.399 177.102 112.585 177.437 112.684 177.801Z" fill="#C1D8ED"/>
<path d="M118.903 184.533H120.482L121.329 181.418L121.476 180.88L120.005 180.48L119.856 181.023L118.903 184.533Z" fill="#C1D8ED"/>
<path d="M119.239 179.084C119.174 179.323 119.157 179.573 119.189 179.818C119.221 180.064 119.302 180.301 119.426 180.515C119.55 180.729 119.716 180.916 119.913 181.066C120.11 181.216 120.336 181.324 120.575 181.386C120.817 181.445 121.069 181.455 121.315 181.417C121.561 181.378 121.797 181.292 122.01 181.162C122.222 181.032 122.407 180.861 122.554 180.66C122.701 180.458 122.806 180.23 122.864 179.988C122.929 179.704 122.926 179.41 122.856 179.127C122.786 178.845 122.651 178.583 122.462 178.363C122.447 178.345 122.428 178.332 122.406 178.325C122.385 178.318 122.362 178.317 122.339 178.322C122.317 178.326 122.297 178.337 122.28 178.353C122.264 178.368 122.251 178.388 122.245 178.41L121.837 179.907L120.194 179.46L120.602 177.96C120.608 177.938 120.608 177.915 120.601 177.893C120.595 177.871 120.583 177.851 120.566 177.835C120.55 177.82 120.529 177.809 120.507 177.804C120.484 177.799 120.461 177.801 120.439 177.808C120.15 177.906 119.889 178.074 119.68 178.297C119.471 178.519 119.319 178.79 119.239 179.084Z" fill="#C1D8ED"/>
</svg>
