<svg width="302" height="204" viewBox="0 0 302 204" fill="none" xmlns="http://www.w3.org/2000/svg">
<path d="M12.2904 203.999C9.28515 204.003 6.38658 202.885 4.16306 200.863C1.93954 198.842 0.55148 196.062 0.271077 193.07C-1.28747 175.994 2.4795 143.488 49.3807 129.466C100.092 114.305 86.0726 52.021 126.576 52.021C167.08 52.021 173.35 84.9071 184.213 91.0542C203.576 102.012 215.11 92.6694 229.333 119.3C246.233 150.941 280.124 134.15 297.536 173.532C299.202 177.37 300.543 181.341 301.543 185.403C303.922 194.851 296.713 203.999 286.972 203.999H12.2904Z" fill="#F3F5FD"/>
<path d="M48.9857 6.79601V12.0598H24.8428C22.2841 12.0599 19.8302 13.0764 18.0208 14.8857C16.2115 16.695 15.195 19.1489 15.1949 21.7077V194.351C15.1949 196.91 16.2114 199.363 18.0207 201.173C19.8301 202.982 22.2841 203.999 24.8428 203.999H153.73C154.998 203.999 156.252 203.75 157.423 203.265C158.594 202.78 159.658 202.07 160.554 201.174C161.45 200.278 162.161 199.214 162.646 198.043C163.131 196.873 163.381 195.618 163.381 194.351V21.7077C163.381 20.4405 163.131 19.1857 162.646 18.015C162.161 16.8443 161.45 15.7807 160.554 14.8847C159.658 13.9888 158.594 13.2782 157.423 12.7935C156.252 12.3088 154.998 12.0595 153.73 12.0598H129.588V6.79601C129.588 5.90357 129.413 5.01986 129.071 4.19534C128.73 3.37081 128.229 2.62162 127.598 1.99054C126.967 1.35947 126.218 0.858868 125.394 0.517328C124.569 0.175789 123.685 -4.40078e-09 122.793 0L55.781 0C54.8886 -4.40078e-09 54.0049 0.175789 53.1804 0.517328C52.3559 0.858868 51.6068 1.35947 50.9757 1.99054C50.3447 2.62162 49.8442 3.37081 49.5028 4.19534C49.1613 5.01986 48.9856 5.90357 48.9857 6.79601Z" fill="#C1D8ED"/>
<path d="M24.118 24.4455L24.118 191.613C24.118 194.011 26.0621 195.955 28.4603 195.955H150.113C152.511 195.955 154.456 194.011 154.456 191.613V24.4455C154.456 22.0473 152.511 20.1033 150.113 20.1033H28.4603C26.0621 20.1033 24.118 22.0473 24.118 24.4455Z" fill="white"/>
<path d="M57.6298 12.353V27.8538C57.6298 29.4846 58.9518 30.8066 60.5825 30.8066L117.991 30.8066C119.622 30.8066 120.944 29.4846 120.944 27.8538V12.353C120.944 10.7222 119.622 9.40021 117.991 9.40021L60.5825 9.40021C58.9518 9.40021 57.6298 10.7222 57.6298 12.353Z" fill="#0CBC8B"/>
<path d="M51.7381 88.1399H37.5326C36.0871 88.1382 34.7013 87.5632 33.6792 86.541C32.6571 85.5189 32.0822 84.133 32.0806 82.6875V68.4821C32.0824 67.0367 32.6573 65.651 33.6794 64.629C34.7015 63.6069 36.0872 63.032 37.5326 63.0303H51.7381C53.1836 63.032 54.5694 63.607 55.5915 64.6292C56.6136 65.6514 57.1885 67.0372 57.1901 68.4827V82.6882C57.1883 84.1336 56.6133 85.5193 55.5913 86.5413C54.5692 87.5633 53.1835 88.1382 51.7381 88.1399ZM37.5326 65.7928C36.8196 65.7937 36.1361 66.0774 35.6319 66.5816C35.1278 67.0858 34.8442 67.7694 34.8434 68.4824V82.6878C34.8442 83.4009 35.1278 84.0844 35.6319 84.5887C36.1361 85.0929 36.8196 85.3765 37.5326 85.3774H51.7381C52.4511 85.3766 53.1347 85.093 53.6389 84.5888C54.1431 84.0845 54.4266 83.4009 54.4273 82.6878V68.4824C54.4266 67.7693 54.1431 67.0857 53.6389 66.5815C53.1347 66.0772 52.4511 65.7936 51.7381 65.7928H37.5326Z" fill="#DEE8F5"/>
<path d="M41.6726 81.0669C41.4955 81.0672 41.3204 81.0296 41.159 80.9566C40.9976 80.8837 40.8537 80.777 40.737 80.6437L36.5192 75.824C36.3061 75.5753 36.1998 75.2525 36.2233 74.9258C36.2468 74.5991 36.3983 74.2948 36.6449 74.0792C36.8914 73.8635 37.2131 73.7539 37.54 73.774C37.8669 73.7942 38.1727 73.9425 38.3909 74.1868L41.8076 78.0901L51.0162 70.3922C51.2699 70.187 51.5941 70.0897 51.9188 70.1214C52.2436 70.1531 52.5429 70.3112 52.7521 70.5615C52.9614 70.8119 53.0639 71.1345 53.0374 71.4597C53.011 71.7849 52.8578 72.0867 52.6108 72.3L42.47 80.7787C42.2464 80.9656 41.9641 81.0677 41.6726 81.0669Z" fill="#262626"/>
<g opacity="0.62">
<path d="M63.2188 75.5848V75.5851C63.2188 76.4996 63.96 77.2409 64.8745 77.2409H143.507C144.421 77.2409 145.162 76.4996 145.162 75.5851V75.5848C145.162 74.6704 144.421 73.9291 143.507 73.9291H64.8745C63.96 73.9291 63.2188 74.6704 63.2188 75.5848Z" fill="#DEE8F5"/>
<path d="M63.2188 65.4341V65.4345C63.2188 66.3489 63.96 67.0902 64.8745 67.0902H143.507C144.421 67.0902 145.162 66.3489 145.162 65.4345V65.4341C145.162 64.5197 144.421 63.7784 143.507 63.7784L64.8745 63.7784C63.96 63.7784 63.2188 64.5197 63.2188 65.4341Z" fill="#DEE8F5"/>
<path d="M63.2185 85.7351V85.7354C63.2185 86.6499 63.9598 87.3912 64.8742 87.3912H129.693C130.607 87.3912 131.348 86.6499 131.348 85.7354V85.7351C131.348 84.8207 130.607 84.0794 129.693 84.0794H64.8742C63.9598 84.0794 63.2185 84.8207 63.2185 85.7351Z" fill="#DEE8F5"/>
</g>
<path d="M51.7381 120.048H37.5326C36.0871 120.047 34.7013 119.472 33.6792 118.45C32.6571 117.427 32.0822 116.042 32.0806 114.596V100.391C32.0822 98.9452 32.6571 97.5594 33.6792 96.5372C34.7013 95.5151 36.0871 94.9402 37.5326 94.9386H51.7381C53.1835 94.9402 54.5694 95.5151 55.5915 96.5372C56.6136 97.5594 57.1885 98.9452 57.1901 100.391V114.596C57.1885 116.042 56.6136 117.427 55.5915 118.45C54.5694 119.472 53.1836 120.047 51.7381 120.048ZM37.5326 97.7014C36.8196 97.7023 36.1361 97.986 35.6319 98.4902C35.1278 98.9944 34.8442 99.678 34.8434 100.391V114.596C34.8442 115.309 35.1278 115.993 35.6319 116.497C36.1361 117.001 36.8196 117.285 37.5326 117.286H51.7381C52.4511 117.285 53.1347 117.002 53.6389 116.497C54.1431 115.993 54.4266 115.309 54.4273 114.596V100.391C54.4266 99.6779 54.1431 98.9943 53.6389 98.4901C53.1347 97.9858 52.4511 97.7022 51.7381 97.7014H37.5326Z" fill="#DEE8F5"/>
<path d="M41.6727 112.975C41.4953 112.976 41.32 112.938 41.1585 112.865C40.997 112.791 40.853 112.684 40.7363 112.551L36.5186 107.731C36.3015 107.483 36.1919 107.158 36.214 106.829C36.236 106.5 36.3878 106.194 36.636 105.977C36.8842 105.76 37.2085 105.65 37.5374 105.672C37.8664 105.694 38.1732 105.846 38.3902 106.094L41.8076 109.999L51.0162 102.301C51.1415 102.197 51.2861 102.118 51.4419 102.069C51.5977 102.02 51.7615 102.002 51.9241 102.017C52.0867 102.032 52.2449 102.078 52.3895 102.154C52.5342 102.229 52.6626 102.333 52.7673 102.458C52.872 102.583 52.951 102.728 52.9998 102.884C53.0486 103.039 53.0662 103.203 53.0517 103.366C53.0372 103.528 52.9908 103.687 52.9152 103.831C52.8395 103.976 52.7361 104.104 52.6109 104.209L42.4697 112.686C42.2463 112.873 41.9641 112.976 41.6727 112.975Z" fill="#262626"/>
<g opacity="0.62">
<path d="M63.2188 107.493V107.494C63.2188 108.408 63.96 109.149 64.8745 109.149H143.507C144.421 109.149 145.162 108.408 145.162 107.494V107.493C145.162 106.579 144.421 105.838 143.507 105.838H64.8745C63.96 105.838 63.2188 106.579 63.2188 107.493Z" fill="#DEE8F5"/>
<path d="M63.2185 97.3427V97.343C63.2185 98.2575 63.9598 98.9988 64.8742 98.9988H143.506C144.421 98.9988 145.162 98.2575 145.162 97.343V97.3427C145.162 96.4283 144.421 95.687 143.506 95.687H64.8742C63.9598 95.687 63.2185 96.4283 63.2185 97.3427Z" fill="#DEE8F5"/>
<path d="M63.2188 117.644V117.644C63.2188 118.559 63.96 119.3 64.8745 119.3H129.693C130.607 119.3 131.349 118.559 131.349 117.644V117.644C131.349 116.73 130.607 115.988 129.693 115.988H64.8745C63.96 115.988 63.2188 116.73 63.2188 117.644Z" fill="#DEE8F5"/>
</g>
<path d="M51.7381 151.957H37.5326C36.0871 151.955 34.7013 151.38 33.6792 150.358C32.6571 149.336 32.0822 147.95 32.0806 146.505V132.299C32.0823 130.854 32.6572 129.468 33.6793 128.446C34.7014 127.424 36.0872 126.849 37.5326 126.847H51.7381C53.1835 126.849 54.5694 127.424 55.5915 128.446C56.6136 129.468 57.1885 130.854 57.1901 132.299V146.505C57.1885 147.95 56.6136 149.336 55.5915 150.358C54.5694 151.38 53.1836 151.955 51.7381 151.957ZM37.5326 129.61C36.8196 129.611 36.1361 129.895 35.6319 130.399C35.1278 130.903 34.8442 131.587 34.8434 132.3V146.505C34.8441 147.218 35.1276 147.902 35.6318 148.406C36.136 148.91 36.8196 149.194 37.5326 149.195H51.7381C52.4511 149.194 53.1347 148.91 53.6389 148.406C54.1431 147.902 54.4266 147.218 54.4273 146.505V132.3C54.4266 131.587 54.1431 130.903 53.6389 130.399C53.1347 129.894 52.4511 129.611 51.7381 129.61H37.5326Z" fill="#DEE8F5"/>
<path d="M41.6727 144.884C41.4954 144.884 41.32 144.847 41.1585 144.773C40.997 144.7 40.853 144.593 40.7364 144.46L36.5186 139.64C36.3055 139.391 36.1992 139.068 36.2227 138.742C36.2462 138.415 36.3977 138.111 36.6443 137.895C36.8908 137.679 37.2125 137.57 37.5394 137.59C37.8663 137.61 38.1721 137.758 38.3903 138.003L41.8077 141.908L51.0162 134.21C51.2692 133.998 51.5958 133.896 51.9242 133.925C52.2525 133.955 52.5558 134.113 52.7673 134.366C52.9788 134.619 53.0811 134.946 53.0518 135.274C53.0224 135.602 52.8638 135.906 52.6109 136.117L42.4697 144.595C42.2463 144.782 41.9641 144.884 41.6727 144.884Z" fill="#262626"/>
<g opacity="0.62">
<path d="M63.2188 139.402V139.402C63.2188 140.317 63.96 141.058 64.8745 141.058H143.507C144.421 141.058 145.162 140.317 145.162 139.402V139.402C145.162 138.488 144.421 137.746 143.507 137.746H64.8745C63.96 137.746 63.2188 138.488 63.2188 139.402Z" fill="#DEE8F5"/>
<path d="M63.2185 129.252V129.252C63.2185 130.166 63.9598 130.908 64.8742 130.908H143.506C144.421 130.908 145.162 130.166 145.162 129.252V129.252C145.162 128.337 144.421 127.596 143.506 127.596H64.8742C63.9598 127.596 63.2185 128.337 63.2185 129.252Z" fill="#DEE8F5"/>
<path d="M63.2188 149.553V149.553C63.2188 150.467 63.96 151.209 64.8745 151.209H129.693C130.607 151.209 131.349 150.467 131.349 149.553V149.553C131.349 148.638 130.607 147.897 129.693 147.897H64.8745C63.96 147.897 63.2188 148.638 63.2188 149.553Z" fill="#DEE8F5"/>
</g>
<path d="M51.7381 184.024H37.5326C36.0872 184.022 34.7014 183.447 33.6793 182.425C32.6572 181.403 32.0823 180.017 32.0806 178.572V164.366C32.0822 162.921 32.6571 161.535 33.6792 160.513C34.7013 159.491 36.0871 158.916 37.5326 158.914H51.7381C53.1836 158.916 54.5694 159.491 55.5915 160.513C56.6136 161.535 57.1885 162.921 57.1901 164.366V178.572C57.1885 180.017 56.6136 181.403 55.5915 182.425C54.5694 183.447 53.1835 184.022 51.7381 184.024ZM37.5326 161.677C36.8196 161.678 36.136 161.962 35.6318 162.466C35.1276 162.97 34.8441 163.654 34.8434 164.367V178.572C34.8442 179.285 35.1278 179.969 35.6319 180.473C36.1361 180.977 36.8196 181.261 37.5326 181.262H51.7381C52.4511 181.261 53.1347 180.977 53.6389 180.473C54.1431 179.969 54.4266 179.285 54.4273 178.572V164.367C54.4266 163.654 54.1431 162.97 53.6389 162.466C53.1347 161.962 52.4511 161.678 51.7381 161.677H37.5326Z" fill="#DEE8F5"/>
<path d="M41.6727 176.951C41.4953 176.951 41.32 176.914 41.1585 176.84C40.9969 176.767 40.853 176.66 40.7364 176.526L36.5186 171.707C36.3055 171.458 36.1992 171.135 36.2227 170.808C36.2462 170.482 36.3977 170.178 36.6443 169.962C36.8908 169.746 37.2125 169.637 37.5394 169.657C37.8663 169.677 38.1721 169.825 38.3903 170.07L41.8077 173.975L51.0162 166.277C51.1411 166.169 51.2862 166.087 51.443 166.036C51.5998 165.984 51.7653 165.965 51.9297 165.978C52.0941 165.992 52.2542 166.038 52.4007 166.113C52.5472 166.189 52.6772 166.294 52.783 166.42C52.8888 166.547 52.9683 166.693 53.017 166.851C53.0657 167.008 53.0825 167.174 53.0665 167.338C53.0505 167.503 53.0019 167.662 52.9237 167.807C52.8455 167.952 52.7392 168.081 52.6109 168.184L42.4697 176.662C42.2464 176.849 41.9642 176.952 41.6727 176.951Z" fill="#262626"/>
<g opacity="0.62">
<path d="M63.2188 171.469V171.469C63.2188 172.384 63.96 173.125 64.8745 173.125H143.507C144.421 173.125 145.162 172.384 145.162 171.469V171.469C145.162 170.555 144.421 169.813 143.507 169.813H64.8745C63.96 169.813 63.2188 170.555 63.2188 171.469Z" fill="#DEE8F5"/>
<path d="M63.2188 161.319V161.319C63.2188 162.233 63.96 162.975 64.8745 162.975H143.507C144.421 162.975 145.162 162.233 145.162 161.319V161.319C145.162 160.404 144.421 159.663 143.507 159.663H64.8745C63.96 159.663 63.2188 160.404 63.2188 161.319Z" fill="#DEE8F5"/>
<path d="M63.2185 181.619V181.62C63.2185 182.534 63.9598 183.276 64.8742 183.276H129.693C130.607 183.276 131.348 182.534 131.348 181.62V181.619C131.348 180.705 130.607 179.964 129.693 179.964H64.8742C63.9598 179.964 63.2185 180.705 63.2185 181.619Z" fill="#DEE8F5"/>
</g>
<path d="M55.7614 39.3828C54.679 39.3828 53.8016 40.2602 53.8016 41.3426C53.8016 42.4249 54.679 43.3023 55.7614 43.3023L122.813 43.3023C123.895 43.3023 124.773 42.4249 124.773 41.3426C124.773 40.2602 123.895 39.3828 122.813 39.3828L55.7614 39.3828Z" fill="#D7E8F4"/>
<path d="M63.9355 48.1757C62.8531 48.1757 61.9757 49.0531 61.9757 50.1354C61.9757 51.2178 62.8531 52.0952 63.9355 52.0952H114.638C115.72 52.0952 116.598 51.2178 116.598 50.1354C116.598 49.0531 115.72 48.1757 114.638 48.1757H63.9355Z" fill="#D7E8F4"/>
<path d="M238.614 135.475C238.614 135.475 243.169 134.336 247.074 134.336C249.197 134.336 250.859 134.435 251.935 134.526C252.307 134.557 252.651 134.734 252.893 135.018C253.135 135.302 253.256 135.67 253.229 136.042L253.094 137.915L238.614 135.475Z" fill="#C1D8ED"/>
<path d="M100.765 191.723H278.636L271.315 166.668H112.316L100.765 191.723Z" fill="#C1D8ED"/>
<g opacity="0.78">
<path d="M100.765 191.723H278.636L271.315 166.668H112.316L100.765 191.723Z" fill="#0F1011"/>
</g>
<path d="M293.888 184.463C293.513 186.309 292.973 187.822 292.249 188.837C287.26 195.78 274.463 195.564 274.463 195.564C274.544 193.08 274.371 190.595 273.947 188.146C272.633 180.354 268.193 169.287 253.583 169.802C238.781 170.326 234.914 182.186 233.941 189.627C233.676 191.594 233.587 193.58 233.675 195.563H146.593C146.525 193.907 146.347 192.257 146.061 190.624C144.731 182.633 140.066 167.882 123.817 169.312C109.14 170.609 106.421 183.207 106.097 190.466C106.006 192.166 106.051 193.871 106.232 195.563C106.232 195.563 98.0246 194.366 93.8668 192.594C93.2949 192.352 92.7836 191.986 92.3694 191.523C91.9553 191.06 91.6485 190.512 91.4712 189.916L91.1553 188.869L89.4179 183.091C89.2959 182.683 89.2603 182.254 89.3132 181.832C89.3662 181.409 89.5067 181.003 89.7257 180.638L91.0561 178.426C90.8478 177.173 90.7781 175.902 90.8483 174.634C90.9647 172.048 91.6716 168.664 94.1911 166.185L94.2076 166.169C95.403 165.021 96.8492 164.167 98.4318 163.674C110.531 159.716 134.222 155.267 137.049 154.344C142.732 152.59 148.212 150.238 153.398 147.326C166.909 139.725 187.913 133.037 204.563 132.433C231.167 131.468 255.148 133.09 293.116 151.309C293.116 151.309 293.174 151.725 293.265 152.465V152.473C293.523 154.56 294.047 159.225 294.396 164.597C294.827 171.366 294.968 179.249 293.888 184.463Z" fill="#DEE8F5"/>
<path d="M101.582 168.938C101.582 170.942 100.551 173.777 90.8464 174.634C90.9628 172.048 91.6697 168.664 94.1893 166.186L94.2058 166.169C94.6384 166.169 101.582 166.925 101.582 168.938Z" fill="#F3F5FD"/>
<path d="M294.395 164.597H281.564C280.508 164.597 278.063 163.699 279.044 159.309C280.017 154.918 293.264 152.465 293.264 152.465V152.473C293.521 154.56 294.045 159.226 294.395 164.597Z" fill="#FD5D76"/>
<g opacity="0.76">
<path d="M245.791 139.11L244.552 151.675L204.761 153.328L206.632 134.377C207.489 134.352 208.353 134.336 209.226 134.336C226.731 134.337 236.536 136.158 245.791 139.11Z" fill="#0F1011"/>
</g>
<g opacity="0.76">
<path d="M256.501 151.201L246.464 151.6L247.637 139.726C251.283 140.985 254.807 142.574 258.164 144.474C261.308 146.253 260.11 151.06 256.501 151.201Z" fill="#0F1011"/>
</g>
<path d="M196.453 160.041H188.643C188.239 160.041 187.911 160.369 187.911 160.773C187.911 161.177 188.239 161.505 188.643 161.505H196.453C196.857 161.505 197.185 161.177 197.185 160.773C197.185 160.369 196.857 160.041 196.453 160.041Z" fill="#C1D8ED"/>
<path d="M106.23 195.564C106.23 195.564 98.0228 194.367 93.8651 192.594C93.2931 192.352 92.7818 191.987 92.3676 191.524C91.9535 191.061 91.6468 190.512 91.4694 189.917L91.1536 188.869C94.0389 189.426 98.7705 190.091 106.096 190.466C106.004 192.166 106.049 193.871 106.23 195.564Z" fill="#C1D8ED"/>
<path d="M233.941 189.627C233.676 191.594 233.587 193.581 233.675 195.564H146.593C146.525 193.907 146.347 192.257 146.061 190.625C174.184 190.375 209.851 189.918 233.941 189.627Z" fill="#C1D8ED"/>
<path d="M293.887 184.463C293.513 186.309 292.973 187.822 292.249 188.837C287.26 195.78 274.462 195.564 274.462 195.564C274.544 193.08 274.371 190.595 273.947 188.146C281.73 187.398 289.779 186.234 293.887 184.463Z" fill="#C1D8ED"/>
<path d="M201.539 192.23L200.866 192.207L203.451 153.017L204.124 153.04L201.539 192.23Z" fill="#C1D8ED"/>
<path d="M151.521 155.542H150.846V192.595H151.521V155.542Z" fill="#C1D8ED"/>
<g opacity="0.76">
<path d="M204.719 134.454L202.848 153.405L151.499 155.525C151.303 155.534 151.109 155.479 150.947 155.368C150.785 155.257 150.664 155.096 150.602 154.909C150.54 154.723 150.541 154.522 150.603 154.336C150.666 154.15 150.788 153.989 150.951 153.879C158.177 149.031 177.827 135.826 204.719 134.454Z" fill="#0F1011"/>
</g>
<path d="M149.816 154.184H153.884C155.07 154.184 156.208 154.655 157.047 155.494C157.886 156.333 158.358 157.471 158.358 158.658C158.358 159.025 158.212 159.377 157.953 159.636C157.693 159.896 157.341 160.041 156.974 160.041H149.816C149.449 160.041 149.098 159.896 148.838 159.636C148.579 159.377 148.433 159.025 148.433 158.658V155.567C148.433 155.2 148.579 154.848 148.838 154.589C149.098 154.329 149.449 154.183 149.816 154.183V154.184Z" fill="#C1D8ED"/>
<path d="M125.892 203.999C134.943 203.999 142.281 196.661 142.281 187.61C142.281 178.559 134.943 171.222 125.892 171.222C116.842 171.222 109.504 178.559 109.504 187.61C109.504 196.661 116.842 203.999 125.892 203.999Z" fill="#0F1011"/>
<path d="M125.893 177.124C127.967 177.124 129.994 177.739 131.719 178.892C133.443 180.044 134.787 181.682 135.581 183.598C136.375 185.514 136.582 187.622 136.178 189.656C135.773 191.69 134.774 193.559 133.308 195.025C131.841 196.492 129.973 197.49 127.939 197.895C125.905 198.3 123.796 198.092 121.88 197.298C119.964 196.505 118.327 195.161 117.174 193.436C116.022 191.712 115.407 189.684 115.407 187.61C115.41 184.83 116.516 182.165 118.482 180.199C120.448 178.233 123.113 177.127 125.893 177.124ZM125.893 176.022C123.601 176.022 121.361 176.702 119.455 177.975C117.549 179.249 116.064 181.058 115.187 183.176C114.31 185.293 114.081 187.623 114.528 189.871C114.975 192.119 116.078 194.184 117.699 195.804C119.32 197.425 121.385 198.529 123.632 198.976C125.88 199.423 128.21 199.193 130.328 198.316C132.445 197.439 134.255 195.954 135.528 194.048C136.802 192.143 137.481 189.902 137.481 187.61C137.481 184.537 136.26 181.59 134.087 179.416C131.914 177.243 128.966 176.022 125.893 176.022Z" fill="#F3F5FD"/>
<path d="M125.892 190.371C127.417 190.371 128.653 189.135 128.653 187.61C128.653 186.086 127.417 184.85 125.892 184.85C124.368 184.85 123.132 186.086 123.132 187.61C123.132 189.135 124.368 190.371 125.892 190.371Z" fill="#F3F5FD"/>
<path d="M129.091 176.573L126.443 187.61H125.341L122.694 176.573H129.091Z" fill="#F3F5FD"/>
<path d="M122.694 198.647L125.341 187.61H126.443L129.091 198.647H122.694Z" fill="#F3F5FD"/>
<path d="M133.718 196.026L125.609 188.083L126.176 187.138L137.004 190.538L133.718 196.026Z" fill="#F3F5FD"/>
<path d="M118.067 179.195L126.176 187.138L125.609 188.083L114.78 184.683L118.067 179.195Z" fill="#F3F5FD"/>
<path d="M114.78 190.538L125.609 187.138L126.176 188.083L118.067 196.026L114.78 190.538Z" fill="#F3F5FD"/>
<path d="M137.004 184.683L126.176 188.083L125.609 187.138L133.718 179.195L137.004 184.683Z" fill="#F3F5FD"/>
<path d="M125.892 189.028C126.676 189.028 127.31 188.393 127.31 187.61C127.31 186.827 126.676 186.193 125.892 186.193C125.109 186.193 124.475 186.827 124.475 187.61C124.475 188.393 125.109 189.028 125.892 189.028Z" fill="#0F1011"/>
<path d="M253.944 203.999C262.995 203.999 270.332 196.661 270.332 187.61C270.332 178.559 262.995 171.222 253.944 171.222C244.893 171.222 237.556 178.559 237.556 187.61C237.556 196.661 244.893 203.999 253.944 203.999Z" fill="#0F1011"/>
<path d="M253.945 177.124C256.018 177.124 258.046 177.739 259.77 178.892C261.495 180.044 262.839 181.682 263.632 183.598C264.426 185.514 264.634 187.622 264.229 189.656C263.824 191.69 262.826 193.559 261.359 195.025C259.893 196.492 258.024 197.49 255.99 197.895C253.956 198.3 251.848 198.092 249.932 197.298C248.016 196.505 246.378 195.161 245.226 193.436C244.073 191.712 243.458 189.684 243.458 187.61C243.462 184.83 244.567 182.165 246.533 180.199C248.499 178.233 251.164 177.127 253.945 177.124ZM253.945 176.022C251.653 176.022 249.412 176.702 247.507 177.975C245.601 179.249 244.116 181.058 243.239 183.176C242.361 185.293 242.132 187.623 242.579 189.871C243.026 192.119 244.13 194.184 245.751 195.804C247.371 197.425 249.436 198.529 251.684 198.976C253.932 199.423 256.262 199.193 258.379 198.316C260.497 197.439 262.306 195.954 263.58 194.048C264.853 192.143 265.533 189.902 265.533 187.61C265.533 184.537 264.312 181.59 262.139 179.416C259.965 177.243 257.018 176.022 253.945 176.022Z" fill="#F3F5FD"/>
<path d="M253.944 190.371C255.469 190.371 256.705 189.135 256.705 187.61C256.705 186.086 255.469 184.85 253.944 184.85C252.42 184.85 251.183 186.086 251.183 187.61C251.183 189.135 252.42 190.371 253.944 190.371Z" fill="#F3F5FD"/>
<path d="M257.143 176.573L254.495 187.61H253.393L250.745 176.573H257.143Z" fill="#F3F5FD"/>
<path d="M250.745 198.647L253.393 187.61H254.495L257.143 198.647H250.745Z" fill="#F3F5FD"/>
<path d="M261.769 196.026L253.661 188.083L254.227 187.138L265.056 190.538L261.769 196.026Z" fill="#F3F5FD"/>
<path d="M246.119 179.195L254.227 187.138L253.661 188.083L242.832 184.683L246.119 179.195Z" fill="#F3F5FD"/>
<path d="M242.832 190.538L253.661 187.138L254.227 188.083L246.119 196.026L242.832 190.538Z" fill="#F3F5FD"/>
<path d="M265.056 184.683L254.227 188.083L253.661 187.138L261.769 179.195L265.056 184.683Z" fill="#F3F5FD"/>
<path d="M253.944 189.028C254.727 189.028 255.362 188.393 255.362 187.61C255.362 186.827 254.727 186.193 253.944 186.193C253.161 186.193 252.526 186.827 252.526 187.61C252.526 188.393 253.161 189.028 253.944 189.028Z" fill="#0F1011"/>
<path d="M204.72 134.454L206.632 134.379L204.761 153.33L202.849 153.405L204.72 134.454Z" fill="#C1D8ED"/>
<path d="M243.977 172.31L243.228 172.865L244.997 151.571L245.695 151.629L243.977 172.31Z" fill="#C1D8ED"/>
<path d="M245.791 139.11L247.637 139.726L246.464 151.6L244.552 151.675L245.791 139.11Z" fill="#C1D8ED"/>
<path d="M196.718 48.0752C186.903 48.0911 177.35 44.9043 169.511 38.9985C161.671 44.9044 152.119 48.0912 142.304 48.0752C141.498 48.0752 140.692 48.0556 139.896 48.0111V65.0748C139.906 80.4133 146.011 94.5459 159.412 102.005L169.511 107.61L179.61 102.005C193.011 94.5459 199.115 80.4133 199.125 65.0748V48.0111C198.328 48.0556 197.523 48.0752 196.718 48.0752Z" fill="white"/>
<path d="M196.718 46.5922C187.222 46.6222 177.979 43.539 170.402 37.8149L169.511 37.1434L168.619 37.8149C161.043 43.5393 151.8 46.6225 142.304 46.5922C141.494 46.5922 140.711 46.5716 139.979 46.5305L138.413 46.4427V65.0758C138.425 82.2016 145.816 96.1341 158.692 103.302L169.511 109.308L180.331 103.302C193.206 96.1351 200.597 82.2027 200.61 65.0758V46.4427L199.044 46.5305C198.309 46.5716 197.528 46.5922 196.718 46.5922ZM197.642 65.0738C197.632 81.0925 190.796 94.0812 178.89 100.708L169.51 105.915L160.132 100.709C148.224 94.0812 141.389 81.0925 141.378 65.0748V49.5494C141.682 49.555 141.99 49.5579 142.303 49.5581C152.063 49.589 161.585 46.5378 169.51 40.8395C177.435 46.538 186.957 49.5891 196.718 49.5581C197.03 49.5581 197.338 49.5552 197.642 49.5494V65.0738Z" fill="#0CBC8B"/>
<path d="M169.51 110.373L158.24 104.116C145.058 96.7799 137.492 82.5502 137.481 65.0765V45.4571L140.031 45.5998C140.745 45.6396 141.509 45.6602 142.303 45.6602C151.597 45.6899 160.644 42.6725 168.059 37.0701L169.51 35.9772L170.96 37.0701C178.376 42.673 187.424 45.6905 196.718 45.6602C197.512 45.6602 198.276 45.6396 198.99 45.5998L201.54 45.4571V65.0748C201.529 82.5502 193.964 96.7796 180.784 104.114L169.51 110.373ZM139.344 47.4283V65.0754C139.356 81.8531 146.572 95.4903 159.145 102.487L169.51 108.24L179.878 102.486C192.447 95.4889 199.664 81.8527 199.675 65.0741V47.427L199.093 47.4607C198.346 47.5025 197.546 47.5241 196.717 47.5241C187.019 47.5547 177.579 44.4055 169.841 38.5588L169.51 38.3098L169.179 38.5588C161.441 44.4057 152.001 47.5549 142.303 47.5241C141.474 47.5241 140.674 47.5025 139.926 47.4607L139.344 47.4283ZM169.51 106.981L159.68 101.524C147.468 94.7264 140.458 81.4414 140.447 65.0754V48.6008L141.396 48.6174C141.694 48.6228 141.998 48.6258 142.304 48.6258C151.869 48.6524 161.199 45.6628 168.968 40.082L169.511 39.6926L170.054 40.082C177.823 45.6627 187.153 48.6524 196.718 48.6258C197.024 48.6258 197.327 48.623 197.626 48.6174L198.574 48.6008V65.0744C198.564 81.4411 191.554 94.726 179.343 101.523L169.51 106.981ZM142.31 50.4901V65.0748C142.321 80.7443 148.982 93.4357 160.586 99.8947L169.51 104.848L178.437 99.8933C190.037 93.4354 196.699 80.745 196.709 65.0731V50.4901C186.984 50.5153 177.487 47.5442 169.51 41.981C161.533 47.5443 152.036 50.5154 142.31 50.4901Z" fill="#0CBC8B"/>
<path d="M163.457 87.0301C163.134 87.0305 162.815 86.9671 162.517 86.8436C162.219 86.7201 161.948 86.5389 161.72 86.3104L152.246 76.835C151.785 76.3741 151.526 75.749 151.526 75.0972C151.526 74.4455 151.785 73.8204 152.246 73.3595C152.707 72.8986 153.332 72.6397 153.983 72.6397C154.635 72.6397 155.26 72.8986 155.721 73.3595L163.459 81.0979L183.303 60.2976C183.531 60.0694 183.802 59.8884 184.1 59.7649C184.398 59.6414 184.718 59.5778 185.04 59.5778C185.363 59.5778 185.683 59.6414 185.981 59.7649C186.279 59.8884 186.55 60.0694 186.778 60.2976C187.006 60.5258 187.187 60.7967 187.311 61.0949C187.434 61.393 187.498 61.7126 187.498 62.0353C187.498 62.358 187.434 62.6776 187.311 62.9758C187.187 63.2739 187.006 63.5448 186.778 63.773L165.197 86.3098C164.969 86.5387 164.698 86.7202 164.399 86.8438C164.101 86.9675 163.78 87.0308 163.457 87.0301Z" fill="#262626"/>
<path d="M241.161 200.966L247.008 200.27C246.744 198.057 246.447 195.4 246.426 194.964C246.426 194.992 246.426 195.015 246.426 195.031H240.541C240.541 195.209 240.541 195.746 241.161 200.966Z" fill="#E98862"/>
<path d="M264.62 201.669L270.507 201.65C270.507 201.65 270.487 195.571 270.487 195.032H264.6C264.6 195.572 264.62 201.669 264.62 201.669Z" fill="#E98862"/>
<path d="M249.361 199.106L238.989 198.93C239.42 188.007 239.493 175.513 239.61 164.209C239.642 161.407 239.853 158.61 240.243 155.834C241.912 143.856 243 131.947 245.247 120.04L245.322 120.062L245.541 118.568L266.869 117.252L267.979 131.187C267.979 131.187 270.757 179.392 272.024 198.775L261.688 199.649C259.826 180.645 256.944 152.955 255.171 132.991C253.136 142.711 251.752 152.775 249.981 162.411C249.626 174.47 249.328 187.08 249.361 199.106Z" fill="#262626"/>
<path d="M257.463 203.946C257.304 203.946 257.148 203.912 257.003 203.848C256.858 203.784 256.728 203.691 256.621 203.575C256.514 203.458 256.432 203.321 256.38 203.171C256.328 203.021 256.308 202.863 256.32 202.705C256.337 202.486 256.416 202.277 256.548 202.102C256.68 201.926 256.86 201.792 257.065 201.716L263.918 199.421C264.05 199.377 264.191 199.363 264.33 199.378C264.469 199.394 264.603 199.439 264.723 199.511C265.665 200.165 266.792 200.499 267.938 200.464C268.83 200.401 269.687 200.088 270.411 199.561C270.474 199.509 270.552 199.476 270.633 199.466C270.715 199.456 270.798 199.469 270.872 199.505C270.946 199.54 271.009 199.596 271.053 199.666C271.097 199.735 271.12 199.816 271.119 199.898V203.249C271.119 203.348 271.1 203.446 271.062 203.537C271.024 203.628 270.968 203.711 270.898 203.781C270.828 203.851 270.745 203.906 270.654 203.944C270.562 203.981 270.464 204 270.366 204L257.463 203.946Z" fill="#C1D8ED"/>
<path d="M233.988 203.946C233.83 203.946 233.673 203.912 233.528 203.848C233.384 203.784 233.253 203.691 233.146 203.575C233.039 203.458 232.957 203.321 232.905 203.171C232.853 203.022 232.833 202.863 232.845 202.705C232.862 202.486 232.942 202.277 233.074 202.102C233.206 201.926 233.385 201.792 233.591 201.716L240.443 199.421C240.576 199.377 240.717 199.363 240.856 199.378C240.995 199.394 241.129 199.439 241.248 199.511C242.19 200.165 243.317 200.499 244.463 200.464C245.356 200.401 246.213 200.088 246.936 199.561C247 199.509 247.077 199.475 247.159 199.465C247.241 199.455 247.324 199.469 247.398 199.504C247.472 199.54 247.535 199.595 247.579 199.665C247.623 199.735 247.646 199.816 247.645 199.898V203.249C247.645 203.348 247.625 203.446 247.588 203.537C247.55 203.628 247.494 203.711 247.424 203.781C247.354 203.851 247.271 203.906 247.179 203.944C247.088 203.981 246.99 204 246.891 204L233.988 203.946Z" fill="#C1D8ED"/>
<path d="M260.646 87.8892C260.646 87.8892 258.422 86.7082 258.918 80.6528L254.323 79.8002C254.323 79.8002 254.839 85.2306 252.514 86.9535L260.646 87.8892Z" fill="#E98862"/>
<g opacity="0.2">
<path d="M253.456 85.8198L257.273 82.899L254.275 82.868C254.188 83.8944 253.91 84.8955 253.456 85.8198Z" fill="black"/>
</g>
<path d="M261.526 78.304C261.208 80.1416 260.205 81.8807 258.584 82.4756C256.817 83.1767 254.906 83.4349 253.017 83.2277C247.986 82.8154 248.981 71.3757 251.369 69.1538C253.758 66.9319 260.768 68.339 261.62 72.0557C262.06 73.9776 261.829 76.5548 261.526 78.304Z" fill="#E98862"/>
<path d="M254.329 76.8885C254.559 76.8885 254.746 76.702 254.746 76.4718C254.746 76.2417 254.559 76.0551 254.329 76.0551C254.099 76.0551 253.912 76.2417 253.912 76.4718C253.912 76.702 254.099 76.8885 254.329 76.8885Z" fill="#0F1011"/>
<path d="M251.041 76.6186C251.271 76.6186 251.458 76.432 251.458 76.2019C251.458 75.9717 251.271 75.7852 251.041 75.7852C250.811 75.7852 250.624 75.9717 250.624 76.2019C250.624 76.432 250.811 76.6186 251.041 76.6186Z" fill="#0F1011"/>
<path d="M250.319 75.3125H250.321L251.425 75.2986C251.476 75.2962 251.524 75.2743 251.558 75.2376C251.593 75.2008 251.612 75.1521 251.612 75.1015C251.612 75.0508 251.592 75.0023 251.556 74.9661C251.521 74.9298 251.473 74.9086 251.423 74.9069H251.42L250.316 74.9207C250.266 74.9231 250.218 74.9449 250.183 74.9816C250.148 75.0184 250.129 75.0671 250.129 75.1177C250.13 75.1683 250.15 75.2168 250.185 75.2531C250.22 75.2894 250.268 75.3107 250.319 75.3125Z" fill="#0F1011"/>
<path d="M255.229 75.7174C255.277 75.7174 255.323 75.6999 255.359 75.6681C255.395 75.6362 255.418 75.5924 255.423 75.5448C255.429 75.4971 255.417 75.4491 255.39 75.4098C255.362 75.3704 255.321 75.3425 255.275 75.3313L254.186 75.0692C254.136 75.059 254.084 75.0685 254.041 75.0958C253.998 75.1231 253.968 75.1659 253.956 75.2153C253.944 75.2647 253.952 75.3168 253.978 75.3606C254.003 75.4044 254.045 75.4365 254.094 75.4501L255.183 75.712C255.198 75.7155 255.213 75.7174 255.229 75.7174Z" fill="#0F1011"/>
<path d="M258.649 82.2559C258.744 82.5616 258.811 82.6946 259.087 82.5313C260.167 81.8902 262.312 80.4922 263.14 75.2585C263.883 70.5683 260.99 68.6349 258.683 67.9449C256.694 67.35 252.554 67.7704 250.32 68.9851C248.662 69.8864 249.875 72.3033 249.875 72.3033C250.705 72.3415 250.523 70.1398 252.48 70.1398C253.993 70.1398 255.326 72.3782 256.742 72.438C258.039 72.4926 258.305 73.2815 258.261 73.7876C257.979 76.8626 258.311 81.1755 258.649 82.2559Z" fill="#0F1011"/>
<path d="M256.497 77.4915C256.475 77.7245 256.499 77.9596 256.569 78.1832C256.638 78.4068 256.751 78.6143 256.901 78.7938C257.051 78.9733 257.236 79.1212 257.444 79.2289C257.651 79.3365 257.879 79.4018 258.112 79.4209C258.345 79.4401 258.58 79.4127 258.803 79.3403C259.025 79.268 259.231 79.1521 259.409 78.9995C259.586 78.8468 259.731 78.6605 259.836 78.4512C259.941 78.2419 260.003 78.0139 260.019 77.7804C260.042 77.5483 260.018 77.314 259.949 77.0914C259.88 76.8688 259.766 76.6625 259.615 76.4847C259.464 76.3069 259.279 76.1613 259.071 76.0565C258.863 75.9518 258.635 75.89 258.403 75.8749C257.143 75.8338 256.577 76.5191 256.497 77.4915Z" fill="#E98862"/>
<g opacity="0.2">
<path d="M252.479 78.7835C252.513 78.7837 252.547 78.7714 252.573 78.749C252.6 78.7265 252.617 78.6953 252.622 78.6611C252.627 78.6269 252.62 78.592 252.601 78.5628C252.583 78.5336 252.554 78.512 252.521 78.5021L251.673 78.242L252.266 76.9216C252.28 76.8872 252.28 76.8488 252.266 76.8144C252.252 76.7801 252.225 76.7524 252.191 76.7372C252.158 76.722 252.119 76.7204 252.084 76.7328C252.049 76.7451 252.021 76.7705 252.004 76.8035L251.344 78.2727C251.336 78.2913 251.332 78.3114 251.332 78.3318C251.332 78.3522 251.336 78.3724 251.344 78.391C251.353 78.4095 251.365 78.4261 251.38 78.4396C251.396 78.453 251.414 78.4631 251.433 78.469L252.436 78.7771C252.45 78.7814 252.464 78.7835 252.479 78.7835Z" fill="black"/>
</g>
<path d="M254.136 79.7543C253.258 79.8423 252.371 79.7696 251.519 79.5397C251.519 79.5397 251.528 80.5519 252.745 80.6532C253.963 80.7544 254.136 79.7543 254.136 79.7543Z" fill="white"/>
<path d="M250.181 69.141C248.689 70.1398 249.076 70.7168 249.356 72.3769L250.874 72.883L254.08 72.3769L257.96 72.883L260.027 73.9624L259.159 70.3929L250.181 69.141Z" fill="#0F1011"/>
<path d="M243.764 119.912C244.97 122.682 268.02 123.833 268.336 118.96C268.539 115.859 266.005 112.963 266.005 106.919C266.005 100.876 270.539 94.8057 266.009 90.2751C264.693 88.9591 263.883 86.6535 261.116 86.6505C260.909 88.2644 251.111 88.2701 251.037 86.688C250.662 86.6937 250.372 86.6994 250.191 86.7082C240.646 87.1195 245.563 98.0068 245.655 105.986C245.767 115.324 242.522 117.059 243.764 119.912Z" fill="white"/>
<path d="M251.012 86.6373C251.087 88.2192 251.947 90.5464 254.602 90.7218C258.14 90.955 260.884 88.2134 261.092 86.5999H261.083C257.6 86.5999 253.043 86.6056 251.012 86.6373Z" fill="#E98862"/>
<path d="M229.273 88.2185C229.273 88.2185 229.23 84.7637 226.761 84.9435C225.203 85.0569 217.8 84.7134 217.69 85.3872C217.417 87.0558 224.189 87.4637 224.803 89.0185L229.273 88.2185Z" fill="#E98862"/>
<path d="M227.635 85.0542C227.635 85.0542 224.198 83.9322 223.353 84.1337C222.605 84.3115 224.163 85.5289 224.163 85.5289L227.635 85.0542Z" fill="#E98862"/>
<path d="M229.564 86.2004L235.721 97.6977L245.202 88.4486C246.384 87.3776 247.896 86.7415 249.488 86.6451C249.488 86.6451 252.369 86.6309 252.363 86.6154C252.588 87.1361 252.259 97.4487 251.971 103.11C251.657 109.238 251.98 116.891 251.688 121.289C251.668 121.578 251.589 121.86 251.455 122.117C251.321 122.374 251.135 122.6 250.91 122.781C250.684 122.962 250.423 123.095 250.143 123.17C249.863 123.245 249.571 123.261 249.285 123.217C246.186 122.743 243.771 121.935 243.418 121.125C242.176 118.272 245.043 115.297 244.931 105.959C244.931 105.905 244.929 105.851 244.928 105.796L244.908 105.909C244.879 103.396 244.452 100.588 244.155 97.9082L237.064 104.825C236.768 105.113 236.417 105.337 236.032 105.485C235.647 105.632 235.236 105.7 234.824 105.683C234.288 105.653 233.769 105.483 233.318 105.192C232.868 104.9 232.501 104.495 232.254 104.019L224.237 89.0509L229.564 86.2004Z" fill="#367CFF"/>
<path d="M266.437 107.108C266.437 113.152 269.171 115.858 268.968 118.959C268.844 120.896 267.855 123.346 260.389 123.871C259.785 123.914 259.187 123.723 258.72 123.338C258.252 122.953 257.95 122.403 257.876 121.801C256.445 109.905 259.049 94.062 259.781 88.7186C260.212 86.4386 260.313 86.5773 261.395 86.5763C264.162 86.5793 266.152 87.5015 267.466 88.8161C271.997 93.3466 266.437 101.067 266.437 107.108Z" fill="#367CFF"/>
<path d="M263.052 116.48L263.245 117.907L261.678 118.118C261.432 118.151 261.209 118.281 261.058 118.479C260.907 118.676 260.841 118.926 260.874 119.172L262.002 127.533C262.035 127.779 262.165 128.002 262.363 128.153C262.561 128.303 262.81 128.369 263.056 128.336L264.623 128.125L264.815 129.551C264.849 129.797 264.979 130.02 265.176 130.171C265.374 130.322 265.623 130.388 265.87 130.355L283.732 127.945C283.978 127.912 284.201 127.782 284.352 127.585C284.503 127.387 284.569 127.137 284.536 126.891L282.772 113.82C282.739 113.574 282.609 113.351 282.412 113.2C282.214 113.049 281.965 112.983 281.718 113.017L263.856 115.426C263.61 115.459 263.387 115.589 263.236 115.787C263.085 115.984 263.019 116.234 263.052 116.48Z" fill="#C1D8ED"/>
<path d="M275.804 124.353L271.798 123.879L271.719 125.451C271.719 126.309 271.217 128.717 271.945 128.921C272.222 128.999 272.58 128.628 272.769 128.01C272.992 128.413 273.102 128.869 273.089 129.329C273.001 130.364 276.666 129.918 276.666 128.899C276.625 127.347 276.334 125.812 275.804 124.353Z" fill="#E98862"/>
<path d="M270.461 126.44L276.665 125.521L274.038 107.817C274.014 107.655 273.978 107.496 273.929 107.34L268.669 90.5302L262.683 92.4032L267.87 108.979L270.461 126.44Z" fill="#367CFF"/>
<path d="M262.257 93.4091L261.544 91.0704L262.919 90.1702L262.139 86.5959C261.115 86.5422 260.341 86.5459 260.045 86.5577C259.366 88.8272 258.292 98.8831 258.028 102.689L262.257 93.4091Z" fill="#367CFF"/>
<g opacity="0.24">
<path d="M262.257 93.4091L261.544 91.0704L262.919 90.1702L262.139 86.5959C261.115 86.5422 260.341 86.5459 260.045 86.5577C259.366 88.8272 258.292 98.8831 258.028 102.689L262.257 93.4091Z" fill="white"/>
</g>
<path d="M250.348 91.0701L248.996 93.1213L252.002 102.552C252.002 102.552 252.692 89.2652 252.414 86.6013C252.414 86.6013 251.691 86.6171 251.22 86.6107C250.629 86.6023 250.098 86.6181 250.098 86.6181L248.974 90.1698L250.348 91.0701Z" fill="#367CFF"/>
<g opacity="0.24">
<path d="M250.348 91.0701L248.996 93.1213L252.002 102.552C252.002 102.552 252.692 89.2652 252.414 86.6013C252.414 86.6013 251.691 86.6171 251.22 86.6107C250.629 86.6023 250.098 86.6181 250.098 86.6181L248.974 90.1698L250.348 91.0701Z" fill="white"/>
</g>
</svg>
