<svg width="360" height="436" viewBox="0 0 360 436" fill="none" xmlns="http://www.w3.org/2000/svg">
<mask id="path-1-inside-1_126_254" fill="white">
<path fill-rule="evenodd" clip-rule="evenodd" d="M0 88.859C1.08423 88.9521 2.18798 89 3.30743 89C5.10951 89 6.8709 88.8758 8.57568 88.6389C12.0854 97.5659 21.9969 104 33.6756 104C44.4557 104 53.7301 98.5179 57.8538 90.6533C60.3454 91.5244 63.0382 92 65.8479 92C78.6344 92 88.9999 82.1503 88.9999 70C88.9999 57.8497 78.6344 48 65.8479 48C63.6205 48 61.4667 48.2989 59.4283 48.8567C56.8091 38.6036 47.2149 31 35.7803 31C23.5855 31 13.484 39.6483 11.704 50.9354C9.0582 50.328 6.23657 50 3.30743 50C2.18798 50 1.08423 50.0479 0 50.141V88.859Z"/>
</mask>
<path fill-rule="evenodd" clip-rule="evenodd" d="M0 88.859C1.08423 88.9521 2.18798 89 3.30743 89C5.10951 89 6.8709 88.8758 8.57568 88.6389C12.0854 97.5659 21.9969 104 33.6756 104C44.4557 104 53.7301 98.5179 57.8538 90.6533C60.3454 91.5244 63.0382 92 65.8479 92C78.6344 92 88.9999 82.1503 88.9999 70C88.9999 57.8497 78.6344 48 65.8479 48C63.6205 48 61.4667 48.2989 59.4283 48.8567C56.8091 38.6036 47.2149 31 35.7803 31C23.5855 31 13.484 39.6483 11.704 50.9354C9.0582 50.328 6.23657 50 3.30743 50C2.18798 50 1.08423 50.0479 0 50.141V88.859Z" fill="#F2FBFF"/>
<path d="M0 88.859H-1V89.7768L-0.0855539 89.8553L0 88.859ZM8.57568 88.6389L9.50634 88.273L9.21815 87.54L8.438 87.6484L8.57568 88.6389ZM57.8538 90.6533L58.1838 89.7093L57.369 89.4245L56.9682 90.1889L57.8538 90.6533ZM59.4283 48.8567L58.4594 49.1042L58.7111 50.0898L59.6922 49.8213L59.4283 48.8567ZM11.704 50.9354L11.4802 51.91L12.5248 52.1498L12.6917 51.0911L11.704 50.9354ZM0 50.141L-0.0855556 49.1447L-1 49.2232V50.141H0ZM3.30743 88C2.2165 88 1.1413 87.9533 0.0855539 87.8627L-0.0855539 89.8553C1.02716 89.9509 2.15946 90 3.30743 90V88ZM8.438 87.6484C6.77902 87.879 5.06363 88 3.30743 88V90C5.15539 90 6.96278 89.8727 8.71336 89.6293L8.438 87.6484ZM33.6756 103C22.3393 103 12.842 96.7574 9.50634 88.273L7.64502 89.0048C11.3288 98.3745 21.6544 105 33.6756 105V103ZM56.9682 90.1889C53.0392 97.6822 44.1339 103 33.6756 103V105C44.7776 105 54.4211 99.3536 58.7394 91.1177L56.9682 90.1889ZM65.8479 91C63.1515 91 60.5703 90.5437 58.1838 89.7093L57.5238 91.5973C60.1205 92.5051 62.9248 93 65.8479 93V91ZM87.9999 70C87.9999 81.5505 78.1308 91 65.8479 91V93C79.138 93 89.9999 82.75 89.9999 70H87.9999ZM65.8479 49C78.1308 49 87.9999 58.4495 87.9999 70H89.9999C89.9999 57.25 79.138 47 65.8479 47V49ZM59.6922 49.8213C61.6452 49.2868 63.7103 49 65.8479 49V47C63.5308 47 61.2882 47.311 59.1643 47.8922L59.6922 49.8213ZM35.7803 32C46.7694 32 55.9561 39.3049 58.4594 49.1042L60.3971 48.6092C57.662 37.9024 47.6605 30 35.7803 30V32ZM12.6917 51.0911C14.3922 40.3086 24.0587 32 35.7803 32V30C23.1122 30 12.5758 38.988 10.7162 50.7796L12.6917 51.0911ZM3.30743 51C6.16218 51 8.90874 51.3197 11.4802 51.91L11.9277 49.9607C9.20767 49.3363 6.31096 49 3.30743 49V51ZM0.0855556 51.1373C1.1413 51.0467 2.2165 51 3.30743 51V49C2.15946 49 1.02717 49.0491 -0.0855556 49.1447L0.0855556 51.1373ZM-1 50.141V88.859H1V50.141H-1Z" fill="#F2FBFF" mask="url(#path-1-inside-1_126_254)"/>
<path d="M360 333H0V436H360V333Z" fill="#4B4B4B"/>
<path d="M40.3611 176.906V179.157H30.0357C28.9416 179.157 27.8923 179.592 27.1186 180.365C26.3449 181.139 25.9103 182.188 25.9102 183.282V257.105C25.9102 258.199 26.3448 259.248 27.1185 260.022C27.8922 260.796 28.9416 261.23 30.0357 261.23H85.1485C85.6903 261.23 86.2268 261.124 86.7274 260.916C87.2279 260.709 87.6827 260.405 88.0659 260.022C88.449 259.639 88.7528 259.184 88.9602 258.683C89.1675 258.183 89.2741 257.646 89.2741 257.105V183.282C89.2741 182.188 88.8394 181.139 88.0657 180.365C87.2921 179.591 86.2427 179.157 85.1485 179.157H74.825V176.906C74.825 176.135 74.5189 175.396 73.974 174.851C73.4291 174.306 72.6901 174 71.9194 174H43.2648C42.4945 174.001 41.756 174.307 41.2115 174.852C40.667 175.397 40.3611 176.136 40.3611 176.906V176.906Z" fill="#C1D8ED"/>
<path d="M29.7258 184.453L29.7258 255.933C29.7258 256.959 30.5572 257.79 31.5827 257.79H83.6015C84.6271 257.79 85.4585 256.959 85.4585 255.933V184.453C85.4585 183.427 84.6271 182.596 83.6015 182.596H31.5827C30.5572 182.596 29.7258 183.427 29.7258 184.453Z" fill="white"/>
<path d="M44.0554 179.282V185.91C44.0554 186.608 44.6207 187.173 45.318 187.173H69.866C70.5633 187.173 71.1286 186.608 71.1286 185.91V179.282C71.1286 178.585 70.5633 178.019 69.866 178.019H45.318C44.6207 178.019 44.0554 178.585 44.0554 179.282Z" fill="#0CBC8B"/>
<path d="M41.536 211.689H35.4636C34.8449 211.689 34.2516 211.443 33.8141 211.005C33.3766 210.568 33.1309 209.974 33.1309 209.356V203.283C33.1309 202.665 33.3766 202.071 33.8141 201.634C34.2516 201.196 34.8449 200.951 35.4636 200.951H41.536C42.1547 200.951 42.748 201.196 43.1855 201.634C43.623 202.071 43.8688 202.665 43.8688 203.283V209.357C43.8684 209.976 43.6224 210.569 43.185 211.006C42.7476 211.443 42.1545 211.689 41.536 211.689ZM35.4636 202.133C35.1587 202.133 34.8664 202.255 34.6508 202.47C34.4352 202.686 34.3139 202.978 34.3135 203.283V209.357C34.3134 209.662 34.4343 209.955 34.6496 210.171C34.865 210.387 35.1572 210.508 35.4621 210.509H41.5346C41.8395 210.509 42.1318 210.387 42.3475 210.172C42.5631 209.956 42.6843 209.664 42.6846 209.359V203.286C42.6842 202.981 42.5629 202.689 42.3473 202.474C42.1318 202.258 41.8395 202.137 41.5346 202.136L35.4636 202.133Z" fill="#DEE8F5"/>
<path d="M41.536 225.333H35.4636C34.8449 225.333 34.2516 225.087 33.8141 224.649C33.3766 224.212 33.1309 223.619 33.1309 223V216.928C33.1309 216.309 33.3766 215.716 33.8141 215.278C34.2516 214.841 34.8449 214.595 35.4636 214.595H41.536C42.1547 214.595 42.748 214.841 43.1855 215.278C43.623 215.716 43.8688 216.309 43.8688 216.928V223C43.8688 223.619 43.623 224.212 43.1855 224.649C42.748 225.087 42.1547 225.333 41.536 225.333V225.333ZM35.4636 215.777C35.1586 215.778 34.8663 215.899 34.6507 216.115C34.4351 216.33 34.3138 216.623 34.3135 216.928V223C34.3138 223.305 34.4351 223.597 34.6507 223.813C34.8663 224.028 35.1586 224.15 35.4636 224.15H41.536C41.841 224.15 42.1333 224.028 42.3489 223.813C42.5645 223.597 42.6858 223.305 42.6861 223V216.928C42.6858 216.623 42.5645 216.33 42.3489 216.115C42.1333 215.899 41.841 215.778 41.536 215.777H35.4636Z" fill="#DEE8F5"/>
<path d="M41.536 238.977H35.4636C34.8449 238.977 34.2516 238.731 33.8141 238.294C33.3766 237.857 33.1309 237.263 33.1309 236.645V230.572C33.1309 229.953 33.3766 229.36 33.8141 228.923C34.2516 228.485 34.8449 228.239 35.4636 228.239H41.536C42.1547 228.239 42.748 228.485 43.1855 228.923C43.623 229.36 43.8688 229.953 43.8688 230.572V236.645C43.8688 237.263 43.623 237.857 43.1855 238.294C42.748 238.731 42.1547 238.977 41.536 238.977V238.977ZM35.4636 229.422C35.1586 229.422 34.8663 229.543 34.6507 229.759C34.4351 229.974 34.3138 230.267 34.3135 230.572V236.644C34.3138 236.949 34.4351 237.241 34.6507 237.457C34.8663 237.673 35.1586 237.794 35.4636 237.794H41.536C41.841 237.794 42.1333 237.673 42.3489 237.457C42.5645 237.241 42.6858 236.949 42.6861 236.644V230.572C42.6858 230.267 42.5645 229.974 42.3489 229.759C42.1333 229.543 41.841 229.422 41.536 229.422H35.4636Z" fill="#DEE8F5"/>
<path d="M37.2324 208.664C37.1566 208.664 37.0816 208.648 37.0125 208.617C36.9435 208.586 36.882 208.54 36.8321 208.483L35.0292 206.422C34.9393 206.315 34.8948 206.178 34.9053 206.039C34.9158 205.9 34.9805 205.77 35.0854 205.679C35.1903 205.587 35.327 205.54 35.4662 205.548C35.6053 205.556 35.7358 205.618 35.8294 205.722L37.2901 207.392L41.2276 204.1C41.3364 204.016 41.4731 203.978 41.6093 203.993C41.7456 204.008 41.8707 204.075 41.9587 204.181C42.0467 204.286 42.0907 204.421 42.0815 204.557C42.0724 204.694 42.0108 204.822 41.9096 204.914L37.573 208.54C37.4775 208.62 37.3569 208.664 37.2324 208.664Z" fill="#262626"/>
<path d="M37.2324 222.309C37.1565 222.309 37.0816 222.293 37.0125 222.261C36.9435 222.23 36.882 222.184 36.8321 222.127L35.0292 220.066C34.9393 219.959 34.8948 219.822 34.9053 219.683C34.9158 219.544 34.9805 219.415 35.0854 219.323C35.1903 219.231 35.327 219.184 35.4662 219.192C35.6053 219.2 35.7358 219.262 35.8294 219.366L37.2901 221.036L41.2276 217.744C41.3364 217.661 41.4731 217.622 41.6093 217.638C41.7456 217.653 41.8707 217.72 41.9587 217.825C42.0467 217.93 42.0907 218.065 42.0815 218.201C42.0724 218.338 42.0108 218.466 41.9096 218.559L37.573 222.184C37.4778 222.264 37.3571 222.308 37.2324 222.309V222.309Z" fill="#262626"/>
<path d="M37.2323 235.953C37.1564 235.953 37.0815 235.937 37.0124 235.905C36.9434 235.874 36.8819 235.828 36.832 235.771L35.0291 233.71C34.9832 233.658 34.948 233.596 34.9257 233.53C34.9033 233.464 34.8942 233.394 34.8989 233.325C34.9035 233.255 34.9219 233.187 34.9528 233.124C34.9838 233.062 35.0268 233.006 35.0793 232.96C35.1318 232.914 35.1929 232.879 35.259 232.857C35.3252 232.834 35.395 232.825 35.4647 232.83C35.5343 232.835 35.6024 232.853 35.6649 232.884C35.7275 232.915 35.7833 232.958 35.8293 233.01L37.29 234.68L41.2275 231.388C41.3363 231.305 41.473 231.267 41.6092 231.282C41.7454 231.297 41.8706 231.364 41.9586 231.469C42.0465 231.574 42.0905 231.709 42.0814 231.846C42.0723 231.982 42.0107 232.11 41.9095 232.203L37.5729 235.828C37.4777 235.908 37.357 235.953 37.2323 235.953Z" fill="#262626"/>
<g opacity="0.62">
<path d="M47.153 205.612C46.762 205.612 46.4451 205.929 46.4451 206.32C46.4451 206.711 46.762 207.028 47.153 207.028H80.7763C81.1673 207.028 81.4843 206.711 81.4843 206.32C81.4843 205.929 81.1673 205.612 80.7763 205.612H47.153Z" fill="#DEE8F5"/>
<path d="M47.153 201.272C46.762 201.272 46.4451 201.589 46.4451 201.98C46.4451 202.371 46.762 202.688 47.153 202.688H80.7763C81.1673 202.688 81.4843 202.371 81.4843 201.98C81.4843 201.589 81.1673 201.272 80.7763 201.272H47.153Z" fill="#DEE8F5"/>
<path d="M47.1535 209.953C46.7625 209.953 46.4456 210.27 46.4456 210.661C46.4456 211.052 46.7625 211.369 47.1535 211.369H74.8699C75.2609 211.369 75.5778 211.052 75.5778 210.661C75.5778 210.27 75.2609 209.953 74.8699 209.953H47.1535Z" fill="#DEE8F5"/>
</g>
<g opacity="0.62">
<path d="M47.1535 219.257C46.7625 219.257 46.4456 219.573 46.4456 219.964C46.4456 220.355 46.7625 220.672 47.1535 220.672H80.7768C81.1678 220.672 81.4848 220.355 81.4848 219.964C81.4848 219.573 81.1678 219.257 80.7768 219.257H47.1535Z" fill="#DEE8F5"/>
<path d="M47.153 214.916C46.762 214.916 46.4451 215.233 46.4451 215.624C46.4451 216.015 46.762 216.332 47.153 216.332H80.7763C81.1673 216.332 81.4843 216.015 81.4843 215.624C81.4843 215.233 81.1673 214.916 80.7763 214.916H47.153Z" fill="#DEE8F5"/>
<path d="M47.1535 223.597C46.7625 223.597 46.4456 223.914 46.4456 224.305C46.4456 224.696 46.7625 225.013 47.1535 225.013H74.8699C75.2609 225.013 75.5778 224.696 75.5778 224.305C75.5778 223.914 75.2609 223.597 74.8699 223.597H47.1535Z" fill="#DEE8F5"/>
</g>
<g opacity="0.62">
<path d="M47.1535 232.901C46.7625 232.901 46.4456 233.218 46.4456 233.609C46.4456 234 46.7625 234.317 47.1535 234.317H80.7768C81.1678 234.317 81.4848 234 81.4848 233.609C81.4848 233.218 81.1678 232.901 80.7768 232.901H47.1535Z" fill="#DEE8F5"/>
<path d="M47.153 228.56C46.762 228.56 46.4451 228.877 46.4451 229.268C46.4451 229.659 46.762 229.976 47.153 229.976H80.7763C81.1673 229.976 81.4843 229.659 81.4843 229.268C81.4843 228.877 81.1673 228.56 80.7763 228.56H47.153Z" fill="#DEE8F5"/>
<path d="M47.1535 237.241C46.7625 237.241 46.4456 237.558 46.4456 237.949C46.4456 238.34 46.7625 238.657 47.1535 238.657H74.8699C75.2609 238.657 75.5778 238.34 75.5778 237.949C75.5778 237.558 75.2609 237.241 74.8699 237.241H47.1535Z" fill="#DEE8F5"/>
</g>
<path d="M43.2564 190.84C42.7936 190.84 42.4185 191.216 42.4185 191.678C42.4185 192.141 42.7936 192.516 43.2564 192.516H71.9277C72.3904 192.516 72.7656 192.141 72.7656 191.678C72.7656 191.216 72.3904 190.84 71.9277 190.84H43.2564Z" fill="#D7E8F4"/>
<path d="M46.7517 194.6C46.289 194.6 45.9138 194.975 45.9138 195.438C45.9138 195.901 46.289 196.276 46.7517 196.276H68.4323C68.8951 196.276 69.2702 195.901 69.2702 195.438C69.2702 194.975 68.8951 194.6 68.4323 194.6H46.7517Z" fill="#D7E8F4"/>
<path d="M74.7132 246.465C74.5718 245.802 74.5303 245.106 74.0534 244.589C73.7942 244.307 73.498 244.07 73.0933 244.204C72.6001 244.369 72.5775 244.843 72.5338 245.286C72.4147 246.527 72.5336 247.779 72.8841 248.976C73.1947 250.043 73.6827 251.334 74.5532 252.075C74.7308 252.232 74.9402 252.349 75.1673 252.418C75.3944 252.487 75.6336 252.506 75.8686 252.473C76.1036 252.44 76.3288 252.357 76.5286 252.23C76.7285 252.102 76.8982 251.932 77.0263 251.732C77.3006 251.333 77.4716 250.872 77.5243 250.39C77.577 249.909 77.5095 249.422 77.3281 248.973C77.0544 248.258 76.2458 247.11 75.3453 247.251C74.3666 247.405 74.3248 248.683 75.0427 249.177C76.235 249.994 77.3599 248.735 78.0553 247.897C78.2034 247.72 78.2774 247.548 78.4333 247.867C78.4837 247.97 78.4989 248.089 78.5503 248.196C78.596 248.302 78.666 248.396 78.7549 248.471C78.8437 248.545 78.9488 248.597 79.0617 248.624C79.3853 248.647 79.7092 248.583 79.9996 248.438L81.2493 248.004C81.5847 247.888 81.4407 247.351 81.1011 247.469C80.6327 247.632 80.1647 247.796 79.6941 247.957C79.4742 248.031 79.2028 248.188 79.0469 247.946C78.9413 247.782 78.9325 247.569 78.8206 247.402C78.7573 247.294 78.664 247.208 78.5521 247.153C78.4403 247.098 78.3148 247.077 78.1912 247.092C77.8579 247.152 77.6417 247.53 77.4447 247.771C77.1904 248.123 76.8751 248.427 76.5138 248.668C76.1099 248.903 75.4326 249.007 75.1512 248.518C75.1023 248.438 75.0776 248.345 75.0801 248.252C75.0826 248.158 75.1122 248.067 75.1653 247.99C75.3453 247.735 75.5841 247.796 75.8281 247.943C76.147 248.143 76.4124 248.418 76.6016 248.743C76.7937 249.058 76.9163 249.41 76.961 249.777C77.0057 250.143 76.9715 250.514 76.8608 250.866C76.5846 251.681 75.7285 252.326 74.9446 251.686C74.2915 251.152 73.9027 250.214 73.6202 249.444C73.3058 248.592 73.1171 247.698 73.0599 246.792C73.0295 246.291 73.0389 245.789 73.0881 245.29C73.1114 245.052 73.0966 244.571 73.4791 244.8C73.5785 244.878 73.6658 244.97 73.7383 245.074C74.0575 245.475 74.0715 246.137 74.1752 246.616C74.2492 246.965 74.7854 246.817 74.7106 246.468L74.7132 246.465Z" fill="#262626"/>
<path d="M247.753 255.356C247.753 255.356 254.975 253.55 261.166 253.55C264.532 253.55 267.169 253.707 268.874 253.851C269.463 253.901 270.009 254.182 270.393 254.632C270.776 255.082 270.967 255.665 270.924 256.255L270.71 259.225L247.753 255.356Z" fill="#C1D8ED"/>
<path d="M29.1968 344.537H311.208L299.6 304.813H47.5112L29.1968 344.537Z" fill="#C1D8ED"/>
<g opacity="0.78">
<path d="M29.1968 344.537H311.208L299.6 304.813H47.5112L29.1968 344.537Z" fill="#0F1011"/>
</g>
<path d="M335.388 333.026C334.795 335.951 333.938 338.353 332.791 339.961C324.88 350.97 304.59 350.627 304.59 350.627C304.719 346.689 304.445 342.749 303.773 338.867C301.69 326.514 294.649 308.966 271.485 309.783C248.018 310.614 241.887 329.414 240.345 341.214C239.925 344.333 239.784 347.483 239.923 350.627H101.856C101.748 348.001 101.466 345.385 101.013 342.796C98.902 330.126 91.5069 306.738 65.7456 309.005C42.4759 311.062 38.1648 331.036 37.6505 342.545C37.5048 345.24 37.5753 347.943 37.8615 350.627C37.8615 350.627 24.8491 348.728 18.256 345.92C17.3496 345.536 16.5393 344.956 15.883 344.222C15.2268 343.489 14.7409 342.619 14.46 341.675L13.9608 340.014L11.2038 330.851C11.0103 330.205 10.9538 329.525 11.0377 328.856C11.1217 328.186 11.3443 327.542 11.6914 326.963L13.802 323.456C13.4715 321.471 13.361 319.454 13.4724 317.445C13.6576 313.344 14.7776 307.979 18.7721 304.05L18.7988 304.023C20.6934 302.203 22.9859 300.848 25.4948 300.067C44.6779 293.791 82.2387 286.737 86.7212 285.274C95.7311 282.493 104.42 278.763 112.642 274.148C134.064 262.097 167.365 251.492 193.765 250.535C235.945 249.005 273.966 251.576 334.163 280.463C334.163 280.463 334.255 281.122 334.4 282.295V282.308C334.808 285.618 335.64 293.014 336.193 301.531C336.878 312.262 337.102 324.76 335.388 333.026Z" fill="#DEE8F5"/>
<path d="M30.4917 308.412C30.4917 311.589 28.857 316.085 13.4714 317.443C13.6566 313.343 14.7766 307.977 18.7711 304.048L18.7978 304.022C19.4832 304.022 30.4917 305.221 30.4917 308.412Z" fill="#F3F5FD"/>
<path d="M336.192 301.53H315.849C314.175 301.53 310.299 300.106 311.854 293.145C313.397 286.184 334.399 282.296 334.399 282.296V282.309C334.808 285.617 335.639 293.013 336.192 301.53Z" fill="#FD5D76"/>
<g opacity="0.76">
<path d="M259.132 261.121L257.169 281.042L194.082 283.665L197.049 253.619C198.406 253.58 199.778 253.553 201.162 253.553C228.912 253.553 244.458 256.441 259.132 261.121Z" fill="#0F1011"/>
</g>
<g opacity="0.76">
<path d="M276.114 280.291L260.201 280.923L262.059 262.097C267.84 264.094 273.427 266.613 278.75 269.625C283.733 272.446 281.835 280.066 276.114 280.291Z" fill="#0F1011"/>
</g>
<path d="M180.907 294.306H168.526C167.885 294.306 167.365 294.826 167.365 295.467C167.365 296.108 167.885 296.627 168.526 296.627H180.907C181.548 296.627 182.068 296.108 182.068 295.467C182.068 294.826 181.548 294.306 180.907 294.306Z" fill="#C1D8ED"/>
<path d="M37.8616 350.627C37.8616 350.627 24.8492 348.728 18.2561 345.92C17.3497 345.536 16.5394 344.956 15.8832 344.222C15.2269 343.489 14.741 342.619 14.4601 341.675L13.9609 340.014C18.536 340.897 26.0374 341.952 37.6524 342.545C37.5061 345.24 37.5761 347.943 37.8616 350.627V350.627Z" fill="#C1D8ED"/>
<path d="M240.345 341.215C239.925 344.334 239.784 347.484 239.923 350.628H101.857C101.748 348.002 101.466 345.386 101.013 342.797C145.601 342.4 202.151 341.675 240.345 341.215Z" fill="#C1D8ED"/>
<path d="M335.388 333.026C334.795 335.951 333.938 338.353 332.791 339.961C324.88 350.97 304.59 350.627 304.59 350.627C304.719 346.689 304.445 342.749 303.773 338.867C316.113 337.68 328.875 335.834 335.388 333.026Z" fill="#C1D8ED"/>
<path d="M188.972 345.342L187.904 345.306L192.002 283.17L193.07 283.206L188.972 345.342Z" fill="#C1D8ED"/>
<path d="M109.67 287.173H108.6V345.92H109.67V287.173Z" fill="#C1D8ED"/>
<g opacity="0.76">
<path d="M194.014 253.738L191.048 283.786L109.635 287.148C109.324 287.162 109.017 287.075 108.76 286.899C108.503 286.722 108.311 286.467 108.212 286.172C108.114 285.876 108.114 285.557 108.214 285.262C108.314 284.967 108.507 284.712 108.765 284.537C120.222 276.85 151.377 255.913 194.014 253.738Z" fill="#0F1011"/>
</g>
<path d="M106.968 285.02H113.416C115.297 285.02 117.102 285.767 118.432 287.097C119.762 288.428 120.51 290.232 120.51 292.113C120.51 292.695 120.279 293.253 119.867 293.664C119.456 294.075 118.899 294.306 118.317 294.306H106.968C106.387 294.306 105.829 294.075 105.418 293.664C105.007 293.253 104.776 292.695 104.776 292.113V287.212C104.776 286.631 105.007 286.073 105.418 285.662C105.829 285.251 106.387 285.02 106.968 285.02Z" fill="#C1D8ED"/>
<path d="M69.0356 364C83.3857 364 95.0187 352.367 95.0187 338.017C95.0187 323.667 83.3857 312.034 69.0356 312.034C54.6855 312.034 43.0525 323.667 43.0525 338.017C43.0525 352.367 54.6855 364 69.0356 364Z" fill="#0F1011"/>
<path d="M69.0355 321.392C72.3237 321.392 75.538 322.367 78.272 324.193C81.006 326.02 83.1369 328.617 84.3952 331.655C85.6535 334.693 85.9828 338.035 85.3413 341.26C84.6998 344.485 83.1164 347.448 80.7913 349.773C78.4662 352.098 75.5039 353.681 72.2789 354.323C69.054 354.964 65.7112 354.635 62.6733 353.377C59.6355 352.118 57.0389 349.987 55.2121 347.253C53.3853 344.519 52.4103 341.305 52.4103 338.017C52.4153 333.609 54.1685 329.383 57.2852 326.267C60.402 323.15 64.6278 321.397 69.0355 321.392M69.0355 319.644C65.4017 319.644 61.8495 320.722 58.828 322.741C55.8066 324.76 53.4517 327.629 52.0611 330.986C50.6705 334.344 50.3067 338.038 51.0157 341.602C51.7246 345.166 53.4745 348.439 56.044 351.009C58.6136 353.578 61.8873 355.328 65.4514 356.037C69.0154 356.746 72.7096 356.382 76.0668 354.991C79.424 353.601 82.2934 351.246 84.3122 348.224C86.331 345.203 87.4085 341.651 87.4084 338.017C87.4084 335.604 86.9332 333.215 86.0099 330.986C85.0865 328.757 83.7332 326.731 82.0271 325.025C80.321 323.319 78.2956 321.966 76.0665 321.043C73.8374 320.119 71.4483 319.644 69.0355 319.644V319.644Z" fill="#F3F5FD"/>
<path d="M69.0356 342.394C71.4531 342.394 73.4129 340.434 73.4129 338.017C73.4129 335.599 71.4531 333.639 69.0356 333.639C66.618 333.639 64.6582 335.599 64.6582 338.017C64.6582 340.434 66.618 342.394 69.0356 342.394Z" fill="#F3F5FD"/>
<path d="M74.1069 320.518L69.9094 338.017H68.1621L63.9644 320.518H74.1069Z" fill="#F3F5FD"/>
<path d="M63.9644 355.516L68.1621 338.017H69.9094L74.1069 355.516H63.9644Z" fill="#F3F5FD"/>
<path d="M81.4424 351.359L68.5869 338.767L69.4848 337.267L86.654 342.658L81.4424 351.359Z" fill="#F3F5FD"/>
<path d="M56.6293 324.675L69.4848 337.267L68.5869 338.767L51.4177 333.376L56.6293 324.675Z" fill="#F3F5FD"/>
<path d="M51.4177 342.658L68.5869 337.267L69.4848 338.767L56.6293 351.359L51.4177 342.658Z" fill="#F3F5FD"/>
<path d="M86.654 333.376L69.4848 338.767L68.5869 337.267L81.4424 324.675L86.654 333.376Z" fill="#F3F5FD"/>
<path d="M69.0355 340.265C70.277 340.265 71.2834 339.258 71.2834 338.017C71.2834 336.775 70.277 335.769 69.0355 335.769C67.794 335.769 66.7876 336.775 66.7876 338.017C66.7876 339.258 67.794 340.265 69.0355 340.265Z" fill="#0F1011"/>
<path d="M272.059 364C286.409 364 298.042 352.367 298.042 338.017C298.042 323.667 286.409 312.034 272.059 312.034C257.709 312.034 246.076 323.667 246.076 338.017C246.076 352.367 257.709 364 272.059 364Z" fill="#0F1011"/>
<path d="M272.059 321.392C275.347 321.392 278.561 322.367 281.295 324.193C284.029 326.02 286.16 328.617 287.418 331.655C288.677 334.693 289.006 338.035 288.364 341.26C287.723 344.485 286.14 347.448 283.815 349.773C281.489 352.098 278.527 353.681 275.302 354.323C272.077 354.964 268.734 354.635 265.697 353.377C262.659 352.118 260.062 349.987 258.235 347.253C256.409 344.519 255.433 341.305 255.433 338.017C255.439 333.609 257.192 329.383 260.309 326.267C263.425 323.15 267.651 321.397 272.059 321.392M272.059 319.644C268.425 319.644 264.873 320.722 261.851 322.741C258.83 324.76 256.475 327.629 255.084 330.986C253.694 334.344 253.33 338.038 254.039 341.602C254.748 345.166 256.498 348.439 259.067 351.009C261.637 353.578 264.911 355.328 268.475 356.037C272.039 356.746 275.733 356.382 279.09 354.991C282.447 353.601 285.317 351.246 287.335 348.224C289.354 345.203 290.432 341.651 290.432 338.017C290.432 335.604 289.956 333.215 289.033 330.986C288.11 328.757 286.756 326.731 285.05 325.025C283.344 323.319 281.319 321.966 279.09 321.043C276.861 320.119 274.471 319.644 272.059 319.644V319.644Z" fill="#F3F5FD"/>
<path d="M272.059 342.394C274.476 342.394 276.436 340.434 276.436 338.017C276.436 335.599 274.476 333.639 272.059 333.639C269.641 333.639 267.681 335.599 267.681 338.017C267.681 340.434 269.641 342.394 272.059 342.394Z" fill="#F3F5FD"/>
<path d="M277.13 320.518L272.933 338.017H271.185L266.988 320.518H277.13Z" fill="#F3F5FD"/>
<path d="M266.988 355.516L271.185 338.017H272.933L277.13 355.516H266.988Z" fill="#F3F5FD"/>
<path d="M284.466 351.359L271.61 338.767L272.508 337.267L289.677 342.658L284.466 351.359Z" fill="#F3F5FD"/>
<path d="M259.653 324.675L272.508 337.267L271.61 338.767L254.441 333.376L259.653 324.675Z" fill="#F3F5FD"/>
<path d="M254.441 342.658L271.61 337.267L272.508 338.767L259.653 351.359L254.441 342.658Z" fill="#F3F5FD"/>
<path d="M289.677 333.376L272.508 338.767L271.61 337.267L284.466 324.675L289.677 333.376Z" fill="#F3F5FD"/>
<path d="M272.059 340.265C273.3 340.265 274.307 339.258 274.307 338.017C274.307 336.775 273.3 335.769 272.059 335.769C270.817 335.769 269.811 336.775 269.811 338.017C269.811 339.258 270.817 340.265 272.059 340.265Z" fill="#0F1011"/>
<path d="M194.014 253.738L197.047 253.619L194.08 283.666L191.048 283.784L194.014 253.738Z" fill="#C1D8ED"/>
<path d="M256.256 313.758L255.068 314.639L257.873 280.878L258.98 280.969L256.256 313.758Z" fill="#C1D8ED"/>
<path d="M259.132 261.121L262.059 262.097L260.2 280.923L257.167 281.042L259.132 261.121Z" fill="#C1D8ED"/>
<path d="M231.521 202.918C231.518 202.881 231.518 202.844 231.518 202.807C231.518 202.133 231.544 201.404 231.61 200.604L225.697 199.504C225.792 200.752 225.778 202.006 225.656 203.252C225.634 203.466 225.608 203.685 225.579 203.907C225.324 205.718 224.742 207.624 223.464 208.639H232.721C232.136 207.621 231.54 205.862 231.521 202.918Z" fill="#E98862"/>
<path d="M234.968 197.58C234.558 199.945 233.268 202.185 231.181 202.949C228.704 203.855 226.869 203.917 224.013 203.917C220.116 203.917 220.245 199.852 220.136 195.757C220.025 191.645 220.353 187.234 221.893 185.801C224.967 182.941 233.991 184.752 235.089 189.536C235.656 192.011 235.358 195.328 234.968 197.58Z" fill="#E98862"/>
<path d="M218.047 188.179C218.047 188.179 216.451 187.822 216.888 186.231C217.178 185.175 218.53 185.41 218.53 185.41C218.53 185.41 217.25 185.175 217.25 184.057C217.25 183.354 217.791 182.16 219.424 182.842C221.339 183.642 223.524 183.539 225.185 183.26C226.125 183.054 227.079 182.92 228.039 182.857H228.044C229.148 182.838 230.248 182.985 231.308 183.294C234.277 184.182 238.841 186.856 237.816 192.881C236.709 199.393 232.743 202.255 232.197 202.651C231.172 203.396 224.866 203.547 224.241 202.923C223.306 201.987 222.797 198.227 222.987 191.676C220.403 191.269 218.627 191.093 218.627 191.093C218.627 191.093 216.479 191.173 216.479 189.603C216.479 188.033 218.047 188.179 218.047 188.179Z" fill="#0F1011"/>
<path d="M221.101 196.534C221.061 197.13 221.257 197.719 221.647 198.171C222.037 198.624 222.59 198.905 223.186 198.954C223.781 199.003 224.372 198.815 224.831 198.431C225.289 198.048 225.578 197.499 225.635 196.904C225.665 196.606 225.634 196.304 225.544 196.018C225.455 195.731 225.309 195.465 225.115 195.237C224.921 195.008 224.682 194.82 224.414 194.685C224.146 194.551 223.854 194.471 223.554 194.452C221.933 194.402 221.204 195.282 221.101 196.534Z" fill="#E98862"/>
<path d="M153.249 234.836L153.08 234.754C154.175 234.62 157.766 233.593 158.141 234.491C158.284 234.832 157.273 235.356 156.512 235.694C158.183 236.427 161.96 236.315 164.081 236.181C164.221 236.172 164.361 236.206 164.482 236.278C164.602 236.35 164.699 236.457 164.758 236.584C164.817 236.712 164.836 236.854 164.813 236.993C164.79 237.132 164.726 237.26 164.629 237.362C160.807 241.347 153.042 239.216 153.042 239.216L151.083 238.804L153.249 234.836Z" fill="#E98862"/>
<path d="M101.674 210.602C101.674 210.602 104.501 209.017 103.676 201.238L109.563 200C109.563 200 109.065 207.004 112.11 209.151L101.674 210.602Z" fill="#E98862"/>
<g opacity="0.15">
<path d="M110.864 207.72L105.862 204.078L109.72 203.945C109.863 205.264 110.251 206.544 110.864 207.72V207.72Z" fill="black"/>
</g>
<path d="M100.248 198.295C100.714 200.65 102.058 202.859 104.162 203.573C106.457 204.422 108.925 204.695 111.351 204.37C117.812 203.685 116.18 188.995 113.038 186.209C109.897 183.423 100.919 185.449 99.9357 190.258C99.4273 192.745 99.8049 196.056 100.248 198.295Z" fill="#E98862"/>
<path d="M109.453 196.253C109.749 196.253 109.99 196.013 109.99 195.716C109.99 195.42 109.749 195.18 109.453 195.18C109.157 195.18 108.917 195.42 108.917 195.716C108.917 196.013 109.157 196.253 109.453 196.253Z" fill="#0F1011"/>
<path d="M113.676 195.805C113.973 195.805 114.213 195.565 114.213 195.269C114.213 194.972 113.973 194.732 113.676 194.732C113.38 194.732 113.14 194.972 113.14 195.269C113.14 195.565 113.38 195.805 113.676 195.805Z" fill="#0F1011"/>
<path d="M113.15 194.12C113.085 194.118 113.023 194.09 112.978 194.044C112.932 193.997 112.907 193.934 112.906 193.869C112.906 193.803 112.931 193.741 112.976 193.693C113.021 193.646 113.083 193.618 113.148 193.615L114.569 193.599H114.572C114.638 193.601 114.7 193.629 114.745 193.675C114.791 193.722 114.816 193.785 114.817 193.85C114.817 193.915 114.792 193.978 114.747 194.026C114.702 194.073 114.641 194.101 114.575 194.104L113.153 194.12H113.15Z" fill="#0F1011"/>
<path d="M108.266 194.772C108.205 194.772 108.146 194.749 108.101 194.709C108.055 194.668 108.025 194.613 108.017 194.552C108.01 194.492 108.024 194.43 108.058 194.38C108.092 194.329 108.143 194.292 108.202 194.276L109.594 193.906C109.627 193.896 109.661 193.893 109.694 193.897C109.728 193.901 109.76 193.911 109.789 193.928C109.819 193.944 109.845 193.967 109.865 193.993C109.886 194.02 109.901 194.05 109.91 194.083C109.918 194.116 109.92 194.15 109.915 194.183C109.911 194.216 109.899 194.248 109.882 194.277C109.865 194.306 109.842 194.331 109.815 194.351C109.787 194.371 109.757 194.385 109.724 194.393L108.331 194.763C108.31 194.769 108.288 194.772 108.266 194.772Z" fill="#0F1011"/>
<path d="M109.802 199.935C109.802 199.935 111.787 200.096 113.163 199.578C113.163 199.578 113.183 200.882 111.62 201.049C110.056 201.215 109.802 199.935 109.802 199.935Z" fill="white"/>
<g opacity="0.15">
<path d="M111.905 198.635C111.861 198.636 111.817 198.621 111.783 198.593C111.748 198.565 111.725 198.526 111.717 198.482C111.71 198.438 111.718 198.393 111.741 198.355C111.764 198.316 111.8 198.288 111.842 198.274L112.925 197.913L112.121 196.232C112.103 196.188 112.103 196.14 112.12 196.096C112.137 196.052 112.17 196.016 112.213 195.996C112.255 195.976 112.304 195.972 112.349 195.986C112.393 196.001 112.431 196.031 112.454 196.072L113.439 198.132L111.958 198.626C111.941 198.631 111.923 198.634 111.905 198.635Z" fill="black"/>
</g>
<path d="M116.578 189.063C116.578 189.063 116.058 182.467 104.677 184.5C101.626 185.045 97.9999 189 98.4999 193C98.4999 193 98.4999 196.25 99.9998 199.5L101.5 202L103.5 203.5C103.5 203.5 104.905 204.302 104.899 204.085C104.899 204.061 104.899 204.036 104.897 204.011C104.798 202.543 104.687 200.055 104.677 196.25C105.072 194.067 103.838 192.567 105.587 193.022C112.08 194.713 116.097 189.199 116.578 189.063Z" fill="#0F1011"/>
<path d="M106.8 198.093C106.832 198.39 106.804 198.69 106.72 198.977C106.635 199.263 106.495 199.53 106.308 199.763C106.12 199.995 105.888 200.188 105.626 200.331C105.364 200.474 105.076 200.564 104.779 200.596C104.179 200.659 103.578 200.482 103.109 200.103C102.876 199.916 102.683 199.684 102.54 199.422C102.397 199.159 102.308 198.871 102.276 198.574C102.204 197.985 102.368 197.392 102.733 196.924C103.098 196.457 103.634 196.153 104.223 196.08C104.247 196.077 104.273 196.075 104.297 196.073C105.918 195.979 106.667 196.844 106.8 198.093Z" fill="#E98862"/>
<path d="M126.321 358.12L118.6 357.202C118.947 354.28 119.34 350.769 119.367 350.194C119.365 350.231 119.367 350.261 119.367 350.284H127.143C127.141 350.518 127.141 351.227 126.321 358.12Z" fill="#E98862"/>
<path d="M95.3385 359.05L87.5627 359.025C87.5627 359.025 87.5887 350.995 87.5887 350.284H95.3644C95.3644 350.997 95.3385 359.05 95.3385 359.05Z" fill="#E98862"/>
<path d="M115.492 355.665L129.192 355.432C128.548 339.128 128.509 322.026 128.308 305.683C125.635 288.068 124.597 267.205 121.297 249.716H91.8605C91.8605 249.716 87.2321 329.624 85.5588 355.224L99.21 356.377C101.67 331.278 105.846 298.039 108.188 271.671C110.876 284.508 112.335 294.468 114.673 307.195C115.14 323.126 115.535 339.781 115.492 355.665Z" fill="#262626"/>
<path d="M104.791 362.058C105 362.056 105.207 362.012 105.398 361.928C105.589 361.843 105.761 361.72 105.903 361.566C106.044 361.413 106.153 361.231 106.221 361.034C106.29 360.836 106.317 360.626 106.3 360.418V360.418C106.278 360.129 106.173 359.852 105.999 359.621C105.824 359.39 105.587 359.213 105.316 359.111L96.2657 356.08C96.0903 356.022 95.9045 356.003 95.7209 356.023C95.5373 356.043 95.3603 356.103 95.2019 356.198C93.9579 357.062 92.4696 357.503 90.956 357.457C89.777 357.373 88.6453 356.96 87.6898 356.264C87.6059 356.195 87.5041 356.152 87.3963 356.138C87.2885 356.125 87.1791 356.143 87.081 356.19C86.9829 356.236 86.9001 356.31 86.8422 356.402C86.7843 356.493 86.7538 356.6 86.7542 356.709V361.136C86.7541 361.266 86.7799 361.395 86.8299 361.516C86.88 361.637 86.9534 361.746 87.0459 361.838C87.1384 361.93 87.2482 362.003 87.369 362.053C87.4898 362.102 87.6192 362.128 87.7498 362.127L104.791 362.058Z" fill="#C1D8ED"/>
<path d="M135.795 362.058C136.004 362.057 136.211 362.012 136.402 361.928C136.594 361.843 136.765 361.72 136.907 361.567C137.049 361.413 137.157 361.231 137.225 361.034C137.294 360.836 137.321 360.626 137.304 360.418C137.282 360.129 137.177 359.853 137.003 359.621C136.829 359.39 136.592 359.213 136.32 359.111L127.27 356.08C127.094 356.022 126.909 356.003 126.725 356.023C126.541 356.043 126.364 356.103 126.206 356.198C124.962 357.062 123.474 357.503 121.96 357.457C120.781 357.373 119.649 356.96 118.694 356.264C118.61 356.195 118.508 356.152 118.4 356.139C118.293 356.125 118.183 356.143 118.085 356.19C117.987 356.236 117.904 356.31 117.846 356.402C117.788 356.493 117.758 356.6 117.758 356.709V361.136C117.758 361.266 117.784 361.395 117.834 361.516C117.884 361.637 117.957 361.746 118.05 361.838C118.142 361.93 118.252 362.003 118.373 362.053C118.494 362.102 118.623 362.128 118.754 362.127L135.795 362.058Z" fill="#C1D8ED"/>
<path d="M88.3388 260.903L88.4199 260.734C88.5543 261.829 89.5815 265.419 88.6836 265.795C88.3422 265.938 87.8186 264.927 87.4805 264.166C86.747 265.837 86.8592 269.614 86.9936 271.734C87.0023 271.875 86.9684 272.015 86.8964 272.135C86.8244 272.256 86.7177 272.352 86.5901 272.412C86.4625 272.471 86.3201 272.49 86.1813 272.467C86.0426 272.444 85.9141 272.38 85.8125 272.282C81.8276 268.461 83.9585 260.696 83.9585 260.696L84.3706 258.736L88.3388 260.903Z" fill="#E98862"/>
<path d="M122.784 250.53C121.232 254.096 92.2677 255.988 91.8604 249.716C91.6012 245.724 93.6007 241.829 93.6007 234.05C93.6007 226.27 87.1235 216.434 92.9553 210.603C94.6478 208.91 97.0546 207.885 100.616 207.881C100.883 209.959 113.334 210.016 113.43 207.98C113.911 207.987 114.285 207.994 114.518 208.005C126.804 208.535 121.401 222.301 121.282 232.572C121.136 244.591 124.383 246.857 122.784 250.53Z" fill="#F3F5FD"/>
<path d="M113.423 207.764C113.327 209.801 111.886 210.152 108.468 210.378C103.914 210.678 100.716 209.793 100.449 207.716H100.46C104.944 207.716 110.809 207.723 113.423 207.764Z" fill="#E98862"/>
<path d="M108.752 235.815C109.388 242.25 109.123 245.16 108.875 253.352C108.845 254.355 108.425 255.306 107.706 256.005C106.986 256.704 106.022 257.095 105.019 257.095H94.7394C94.2054 257.095 93.6772 256.984 93.1884 256.769C92.6995 256.554 92.2606 256.24 91.8994 255.846C91.5381 255.453 91.2624 254.989 91.0897 254.484C90.917 253.979 90.851 253.443 90.8959 252.911C91.782 242.252 92.0782 232.338 92.594 227.992C92.594 227.992 92.3485 235.163 91.4791 239.278C90.6097 243.392 89.7703 261.584 89.7703 261.584C89.7703 261.584 87.8478 262.002 81.7876 262.002C81.7876 262.002 81.7876 241.589 83.2365 235.648C84.6853 229.708 89.7348 210.167 94.1506 208.635C97.6893 207.407 102.63 207.713 102.63 207.713C102.63 207.713 108.01 228.289 108.752 235.815Z" fill="#367CFF"/>
<path d="M111.852 207.716C111.852 207.716 108.752 225.674 108.752 235.815C108.752 239.28 108.538 243.244 108.698 253.152C108.706 253.666 108.816 254.172 109.023 254.643C109.229 255.113 109.528 255.538 109.9 255.891C110.273 256.245 110.713 256.52 111.193 256.702C111.674 256.883 112.186 256.967 112.699 256.948L120.298 256.664C120.815 256.644 121.322 256.521 121.791 256.301C122.259 256.082 122.678 255.771 123.023 255.386C123.369 255.001 123.633 254.551 123.801 254.062C123.969 253.572 124.037 253.055 124.001 252.539C123.496 245.338 122.455 230.693 122.211 228.697L128.482 237.509C128.871 238.056 129.373 238.512 129.953 238.848C130.534 239.184 131.18 239.391 131.848 239.455L153.909 241.43C153.909 241.43 154.295 237.586 154.917 233.21L133.914 230.664C133.914 230.664 122.91 210.713 119.399 208.801C117.866 207.967 115.765 207.849 114.512 207.792C112.963 207.72 111.852 207.716 111.852 207.716Z" fill="#367CFF"/>
<path d="M108.824 253.854C108.8 253.854 108.776 253.845 108.759 253.827C108.742 253.81 108.732 253.787 108.732 253.762L108.658 235.816C108.658 235.791 108.668 235.768 108.685 235.751C108.703 235.734 108.726 235.724 108.75 235.724V235.724C108.775 235.724 108.798 235.734 108.816 235.751C108.833 235.769 108.843 235.792 108.843 235.817L108.917 253.763C108.917 253.775 108.915 253.787 108.91 253.798C108.906 253.81 108.899 253.82 108.89 253.829C108.882 253.837 108.871 253.844 108.86 253.849C108.849 253.853 108.837 253.856 108.825 253.856L108.824 253.854Z" fill="#367CFF"/>
<g opacity="0.25">
<path d="M108.824 253.854C108.8 253.854 108.776 253.845 108.759 253.827C108.742 253.81 108.732 253.787 108.732 253.762L108.658 235.816C108.658 235.791 108.668 235.768 108.685 235.751C108.703 235.734 108.726 235.724 108.75 235.724V235.724C108.775 235.724 108.798 235.734 108.816 235.751C108.833 235.769 108.843 235.792 108.843 235.817L108.917 253.763C108.917 253.775 108.915 253.787 108.91 253.798C108.906 253.81 108.899 253.82 108.89 253.829C108.882 253.837 108.871 253.844 108.86 253.849C108.849 253.853 108.837 253.856 108.825 253.856L108.824 253.854Z" fill="#0F1011"/>
</g>
<path d="M175.298 232.934L173.391 231.633C172.935 231.321 172.312 231.438 172 231.895L169.16 236.055C168.848 236.512 168.965 237.134 169.422 237.446L171.329 238.748C171.785 239.059 172.408 238.942 172.719 238.486L175.56 234.325C175.872 233.869 175.754 233.246 175.298 232.934Z" fill="#0CBC8B"/>
<path d="M176.263 232.636L173.942 231.985C173.675 231.91 173.389 231.945 173.147 232.081C172.906 232.217 172.728 232.443 172.653 232.71L172.387 233.658C172.349 233.791 172.338 233.929 172.354 234.066C172.371 234.203 172.414 234.335 172.481 234.455C172.549 234.575 172.639 234.681 172.747 234.766C172.856 234.851 172.98 234.914 173.112 234.951L173.694 235.113L174.849 235.439L175.43 235.602C175.698 235.677 175.984 235.643 176.227 235.507C176.469 235.371 176.647 235.144 176.723 234.876L176.989 233.925C177.063 233.658 177.029 233.372 176.893 233.13C176.757 232.889 176.53 232.711 176.263 232.636V232.636ZM176.023 233.414C176.002 233.489 175.957 233.555 175.895 233.602C175.832 233.649 175.756 233.674 175.678 233.673C175.647 233.673 175.616 233.669 175.586 233.662L173.986 233.214C173.904 233.191 173.833 233.138 173.786 233.067C173.739 232.995 173.719 232.909 173.731 232.824C173.743 232.739 173.785 232.661 173.85 232.605C173.914 232.549 173.997 232.518 174.082 232.518C174.114 232.518 174.145 232.522 174.175 232.529L175.778 232.981C175.823 232.993 175.865 233.013 175.902 233.042C175.938 233.07 175.969 233.106 175.992 233.146C176.014 233.186 176.029 233.231 176.034 233.277C176.04 233.323 176.036 233.369 176.023 233.414V233.414Z" fill="#1F2A37"/>
<path d="M174.446 237.339L174.803 236.065L174.682 236.031L175.264 233.954L174.11 233.631L172.46 239.52C172.417 239.673 172.437 239.837 172.515 239.975C172.592 240.114 172.722 240.216 172.875 240.259V240.259C172.951 240.28 173.03 240.287 173.109 240.277C173.187 240.268 173.263 240.244 173.331 240.205C173.4 240.166 173.461 240.115 173.51 240.053C173.558 239.991 173.594 239.92 173.616 239.844L173.828 239.086L173.949 239.12L174.248 238.052L174.127 238.018L174.327 237.305L174.446 237.339Z" fill="#1F2A37"/>
<path d="M176.782 231.282C177.099 230.128 176.695 229.01 175.878 228.786C175.062 228.561 174.142 229.315 173.825 230.469C173.507 231.623 173.912 232.74 174.728 232.965C175.545 233.19 176.464 232.436 176.782 231.282Z" stroke="#1F2A37" stroke-miterlimit="10"/>
<path d="M172.865 230.977C172.865 230.977 175.776 232.476 178.915 232.476L179.93 227.453C179.93 227.453 176.947 224.761 175.873 225.038C174.984 225.268 175.607 226.125 176.404 226.922" fill="#E98862"/>
<path d="M172.865 230.977C172.865 230.977 175.776 232.476 178.915 232.476L179.93 227.453C179.93 227.453 176.947 224.761 175.873 225.038C174.984 225.268 175.607 226.125 176.404 226.922" fill="#E98862"/>
<path d="M208.738 358.121C207.918 351.227 207.918 350.518 207.918 350.284H215.694C215.694 350.261 215.694 350.23 215.694 350.194C215.722 350.769 216.114 354.28 216.461 357.202L208.738 358.121Z" fill="#E98862"/>
<path d="M239.721 359.05C239.721 359.05 239.695 350.998 239.695 350.284H247.471C247.471 350.996 247.496 359.025 247.496 359.025L239.721 359.05Z" fill="#E98862"/>
<path d="M230.269 362.058C230.059 362.057 229.853 362.012 229.661 361.928C229.47 361.843 229.298 361.72 229.157 361.567C229.015 361.413 228.907 361.231 228.838 361.034C228.77 360.836 228.743 360.627 228.759 360.418C228.782 360.129 228.886 359.853 229.061 359.621C229.235 359.39 229.472 359.213 229.744 359.111L238.794 356.08C238.969 356.022 239.155 356.003 239.339 356.023C239.522 356.043 239.699 356.103 239.857 356.198C241.102 357.062 242.59 357.503 244.104 357.457C245.283 357.373 246.414 356.96 247.37 356.264C247.454 356.195 247.555 356.152 247.663 356.139C247.771 356.125 247.88 356.143 247.978 356.19C248.076 356.236 248.159 356.31 248.217 356.402C248.275 356.494 248.306 356.6 248.305 356.709V361.136C248.305 361.266 248.28 361.395 248.23 361.516C248.179 361.637 248.106 361.746 248.014 361.838C247.921 361.93 247.811 362.003 247.691 362.053C247.57 362.102 247.441 362.128 247.31 362.127L230.269 362.058Z" fill="#C1D8ED"/>
<path d="M199.264 362.058C199.055 362.057 198.848 362.012 198.657 361.928C198.466 361.844 198.294 361.721 198.152 361.567C198.011 361.413 197.902 361.231 197.834 361.034C197.765 360.836 197.739 360.626 197.755 360.418C197.777 360.129 197.882 359.853 198.056 359.621C198.231 359.39 198.468 359.213 198.739 359.111L207.79 356.08C207.965 356.022 208.151 356.003 208.334 356.023C208.518 356.043 208.695 356.103 208.853 356.198C210.097 357.062 211.586 357.503 213.099 357.457C214.278 357.374 215.41 356.96 216.365 356.264C216.449 356.195 216.551 356.152 216.659 356.139C216.767 356.125 216.876 356.143 216.974 356.19C217.072 356.236 217.155 356.31 217.213 356.402C217.271 356.494 217.301 356.6 217.301 356.709V361.136C217.301 361.266 217.275 361.395 217.225 361.516C217.175 361.637 217.102 361.746 217.009 361.838C216.917 361.93 216.807 362.003 216.686 362.053C216.565 362.102 216.436 362.128 216.306 362.127L199.264 362.058Z" fill="#C1D8ED"/>
<path d="M235.849 356.377L249.501 355.964C247.837 330.521 242.692 247.552 242.692 247.552L214.523 249.292L214.233 251.266L214.134 251.237C211.071 267.474 208.884 284.53 206.447 300.985C206.049 303.667 205.847 306.374 205.842 309.085C205.812 324.246 205.842 341.099 205.87 356.174L219.568 356.407C219.524 340.515 220.642 323.144 221.125 307.203C223.432 294.614 224.839 281.448 227.277 268.728C229.627 295.136 233.387 331.246 235.849 356.377Z" fill="#262626"/>
<path d="M250.982 260.894C250.982 261.998 250.4 265.686 251.337 265.95C251.899 266.108 252.562 263.358 252.562 263.358" fill="#E98862"/>
<path d="M255.406 260.315C255.406 260.315 258.466 267.763 254.976 272.041C254.887 272.15 254.767 272.229 254.632 272.269C254.497 272.309 254.354 272.307 254.22 272.264C254.086 272.22 253.968 272.138 253.882 272.027C253.796 271.916 253.745 271.781 253.737 271.641C253.567 268.756 252.986 262.83 251.083 263.523V258.87" fill="#E98862"/>
<path d="M214.082 232.57C213.962 222.301 208.565 208.317 220.849 207.791C222.335 207.727 229.589 207.717 234.901 207.717C238.468 207.717 241.398 208.812 243.089 210.504C248.922 216.336 241.763 226.274 241.763 234.053C241.763 241.832 245.28 245.316 245.021 249.306C244.614 255.581 214.13 254.098 212.576 250.535C210.978 246.856 214.224 244.592 214.082 232.57Z" fill="#367CFF"/>
<path d="M249.147 261.7L245.777 239.001L237.421 216.28L244.999 213.493L253.498 236.604C253.593 236.863 253.662 237.131 253.702 237.404L257.133 260.514L249.147 261.7Z" fill="#367CFF"/>
<path d="M202.34 239.262C202.036 239.262 201.734 239.226 201.439 239.156L177.678 233.506L179.477 225.941L200.631 230.971L214.179 211.042L220.61 215.414L205.554 237.559C205.198 238.084 204.719 238.513 204.158 238.81C203.598 239.106 202.974 239.261 202.34 239.262Z" fill="#367CFF"/>
<path d="M177.115 227.567C177.153 227.398 177.156 227.223 177.125 227.052C177.094 226.881 177.03 226.719 176.935 226.573C176.84 226.428 176.717 226.303 176.574 226.206C176.43 226.109 176.268 226.041 176.098 226.007C175.182 225.817 173.842 225.669 173.265 226.246C172.347 227.163 171.73 230.044 172.347 230.662C172.965 231.279 175.775 232.156 176.223 230.755C176.518 229.833 176.903 228.463 177.115 227.567Z" fill="#E98862"/>
<path d="M102.629 207.716C102.629 207.716 108.775 220.67 108.775 236.27L99.7527 216.671L101.944 213.918L98.8711 211.745L99.4487 207.749C100.449 207.547 102.629 207.716 102.629 207.716Z" fill="#367CFF"/>
<path d="M111.852 207.716C111.852 207.716 108.053 223.019 108.774 236.27L115.41 216.671L113.423 214.208L115.914 212.324L114.512 207.79L111.852 207.716Z" fill="#367CFF"/>
<path opacity="0.25" d="M102.629 207.716C102.629 207.716 108.775 220.67 108.775 236.27L99.7527 216.671L101.944 213.918L98.8711 211.745L99.4487 207.749C100.449 207.547 102.629 207.716 102.629 207.716Z" fill="#0F1011"/>
<path opacity="0.25" d="M111.852 207.716C111.852 207.716 108.053 223.019 108.774 236.27L115.41 216.671L113.423 214.208L115.914 212.324L114.512 207.79L111.852 207.716Z" fill="#0F1011"/>
<path opacity="0.25" d="M107.584 238.911C107.904 238.911 108.163 238.651 108.163 238.331C108.163 238.011 107.904 237.752 107.584 237.752C107.264 237.752 107.004 238.011 107.004 238.331C107.004 238.651 107.264 238.911 107.584 238.911Z" fill="#0F1011"/>
<path opacity="0.25" d="M107.584 243.572C107.904 243.572 108.163 243.313 108.163 242.993C108.163 242.673 107.904 242.413 107.584 242.413C107.264 242.413 107.004 242.673 107.004 242.993C107.004 243.313 107.264 243.572 107.584 243.572Z" fill="#0F1011"/>
<path opacity="0.25" d="M107.584 248.234C107.904 248.234 108.163 247.975 108.163 247.655C108.163 247.334 107.904 247.075 107.584 247.075C107.264 247.075 107.004 247.334 107.004 247.655C107.004 247.975 107.264 248.234 107.584 248.234Z" fill="#0F1011"/>
<path d="M181.569 266.722C181.536 266.817 181.474 266.9 181.392 266.959C181.31 267.018 181.212 267.051 181.111 267.052C181.011 267.053 180.912 267.023 180.828 266.966C180.745 266.91 180.681 266.828 180.646 266.734C180.446 266.15 180.126 265.614 179.705 265.161C179.094 264.602 178.363 264.19 177.568 263.957C177.472 263.925 177.388 263.864 177.328 263.782C177.268 263.701 177.235 263.603 177.232 263.502C177.23 263.401 177.258 263.302 177.314 263.218C177.37 263.133 177.45 263.068 177.544 263.031C178.305 262.745 179.004 262.314 179.601 261.762C180.048 261.245 180.39 260.646 180.607 259.999C180.643 259.903 180.708 259.82 180.792 259.763C180.877 259.706 180.978 259.676 181.08 259.678C181.182 259.681 181.281 259.715 181.363 259.777C181.445 259.838 181.505 259.924 181.536 260.021C181.725 260.719 182.051 261.373 182.494 261.944C183.044 262.487 183.721 262.883 184.464 263.099C184.561 263.132 184.645 263.195 184.704 263.278C184.764 263.362 184.795 263.462 184.795 263.564C184.795 263.667 184.762 263.766 184.702 263.85C184.642 263.933 184.558 263.995 184.461 264.028C183.718 264.253 183.033 264.64 182.457 265.161C182.048 265.609 181.745 266.142 181.569 266.722V266.722Z" fill="white"/>
<path d="M172.491 272.006C172.468 272.072 172.426 272.129 172.369 272.17C172.313 272.21 172.245 272.232 172.176 272.233C172.106 272.234 172.038 272.214 171.981 272.175C171.924 272.135 171.88 272.079 171.855 272.014C171.718 271.612 171.497 271.243 171.207 270.931C170.786 270.546 170.282 270.262 169.735 270.101C169.669 270.079 169.611 270.037 169.57 269.981C169.529 269.925 169.506 269.858 169.504 269.788C169.502 269.719 169.522 269.65 169.56 269.592C169.598 269.534 169.654 269.49 169.718 269.464C170.243 269.267 170.724 268.97 171.135 268.589C171.443 268.233 171.679 267.821 171.828 267.374C171.853 267.308 171.898 267.252 171.956 267.212C172.015 267.173 172.084 267.153 172.154 267.154C172.225 267.156 172.293 267.18 172.349 267.222C172.406 267.264 172.447 267.323 172.469 267.39C172.599 267.871 172.823 268.321 173.128 268.715C173.508 269.089 173.974 269.362 174.485 269.51C174.552 269.533 174.61 269.576 174.651 269.633C174.692 269.691 174.715 269.76 174.715 269.83C174.715 269.901 174.692 269.97 174.651 270.027C174.61 270.085 174.552 270.128 174.485 270.15C173.973 270.306 173.502 270.572 173.105 270.931C172.823 271.239 172.613 271.607 172.491 272.006Z" fill="white"/>
<path fill-rule="evenodd" clip-rule="evenodd" d="M275.618 46.9766C275.248 46.9921 274.875 47 274.5 47C263.178 47 254 39.8366 254 31C254 22.1634 263.178 15 274.5 15C275.843 15 277.156 15.1008 278.427 15.2933C280.419 6.57474 289.313 0 299.984 0C310.301 0 318.957 6.14542 321.32 14.4322C323.159 13.9813 325.102 13.7397 327.112 13.7397C338.648 13.7397 348 21.7005 348 31.5205C348 41.3406 338.648 49.3014 327.112 49.3014C324.577 49.3014 322.147 48.917 319.899 48.213C316.179 54.5693 307.811 59 298.085 59C287.74 59 278.932 53.9874 275.618 46.9766Z" fill="#D1E8FD"/>
<path fill-rule="evenodd" clip-rule="evenodd" d="M237.618 46.9766C237.248 46.9921 236.875 47 236.5 47C225.178 47 216 39.8366 216 31C216 22.1634 225.178 15 236.5 15C237.843 15 239.156 15.1008 240.427 15.2933C242.419 6.57474 251.313 0 261.984 0C272.301 0 280.957 6.14542 283.32 14.4322C285.159 13.9813 287.102 13.7397 289.112 13.7397C300.648 13.7397 310 21.7005 310 31.5205C310 41.3406 300.648 49.3014 289.112 49.3014C286.577 49.3014 284.147 48.917 281.899 48.213C278.179 54.5693 269.811 59 260.085 59C249.74 59 240.932 53.9874 237.618 46.9766Z" fill="#D1E8FD"/>
</svg>
