<svg width="18" height="23" viewBox="0 0 18 23" fill="none" xmlns="http://www.w3.org/2000/svg">
<path fill-rule="evenodd" clip-rule="evenodd" d="M18 18.8216C18 22.567 12.8636 23 9.00114 23L8.72473 22.9997C6.26387 22.9938 0 22.8384 0 18.7988C0 15.1298 4.92995 14.6395 8.76305 14.621L9.27753 14.6207C11.7382 14.6267 18 14.782 18 18.8216ZM9.00114 16.325C4.15909 16.325 1.70455 17.1568 1.70455 18.7988C1.70455 20.4557 4.15909 21.2954 9.00114 21.2954C13.842 21.2954 16.2955 20.4636 16.2955 18.8216C16.2955 17.1648 13.842 16.325 9.00114 16.325ZM9.00114 0.419983C12.3284 0.419983 15.0341 3.1268 15.0341 6.45407C15.0341 9.78135 12.3284 12.487 9.00114 12.487H8.96477C5.64432 12.4768 2.95455 9.76885 2.96587 6.45066C2.96587 3.1268 5.67273 0.419983 9.00114 0.419983ZM9.00114 2.04271C6.56818 2.04271 4.58861 4.02112 4.58861 6.45407C4.58068 8.87907 6.54545 10.8563 8.96818 10.8654L9.00114 11.6768V10.8654C11.433 10.8654 13.4114 8.88589 13.4114 6.45407C13.4114 4.02112 11.433 2.04271 9.00114 2.04271Z" fill="#9ED8DB"/>
</svg>
